<svg width="130" height="62" viewBox="0 0 130 62" fill="none" xmlns="http://www.w3.org/2000/svg">
<g filter="url(#filter0_d_3_61)">
<path d="M37.6484 59.4875H22.7422L26.2734 42.925H18.8984L11.2422 59.4875H8.08594L29.4609 13.8H47.3359L46.6797 16.8H34.8984L31.2734 34.0813H42.3984L41.7422 37.0188H30.6172L26.4609 56.55H38.2422L37.6484 59.4875ZM20.2422 39.8313H26.8984L31.7734 16.8625H30.8672L20.2422 39.8313ZM62.8072 49.5188C62.8072 52.6021 61.828 55.1438 59.8697 57.1438C57.9114 59.1229 55.3697 60.1125 52.2447 60.1125C46.7447 60.1125 43.9947 56.9146 43.9947 50.5188C43.9947 45.7271 44.6614 41.3208 45.9947 37.3C47.3489 33.2792 49.1509 30.2167 51.4009 28.1125C53.6509 25.9875 56.1718 24.925 58.9634 24.925C61.0676 24.925 62.7655 25.55 64.0572 26.8C65.3489 28.0292 65.9947 29.6438 65.9947 31.6438C65.9947 34.4771 65.2551 36.8521 63.7759 38.7688C62.2968 40.6854 60.2864 41.8938 57.7447 42.3938V42.5188C59.3697 42.8729 60.6197 43.6646 61.4947 44.8938C62.3697 46.1229 62.8072 47.6646 62.8072 49.5188ZM47.7134 43.675C47.2759 46.6125 47.0572 48.8313 47.0572 50.3313C47.0572 52.8104 47.5259 54.6333 48.4634 55.8C49.4009 56.9458 50.7864 57.5188 52.6197 57.5188C54.7447 57.5188 56.4843 56.7688 57.8384 55.2688C59.1926 53.7479 59.8697 51.8521 59.8697 49.5813C59.8697 47.6646 59.3072 46.2063 58.1822 45.2063C57.0572 44.1854 55.4426 43.675 53.3384 43.675H47.7134ZM58.5259 27.675C56.1093 27.675 54.0572 28.7583 52.3697 30.925C50.6822 33.0917 49.2759 36.4875 48.1509 41.1125H53.8384C55.5259 41.1125 57.0676 40.7688 58.4634 40.0813C59.8801 39.3729 60.9947 38.3625 61.8072 37.05C62.6405 35.7375 63.0572 34.1125 63.0572 32.175C63.0572 30.7375 62.6614 29.6333 61.8697 28.8625C61.0989 28.0708 59.9843 27.675 58.5259 27.675ZM71.9347 40.175C73.7472 40.175 75.2889 39.3833 76.5597 37.8C77.8305 36.2167 78.4659 34.3104 78.4659 32.0813C78.4659 29.1854 77.1639 27.7375 74.5597 27.7375C73.018 27.7375 71.6534 28.1229 70.4659 28.8938L69.4347 26.3313C71.143 25.3938 72.9972 24.925 74.9972 24.925C77.0805 24.925 78.6639 25.5188 79.7472 26.7063C80.8514 27.8938 81.4034 29.5604 81.4034 31.7063C81.4034 33.9979 80.8722 35.9875 79.8097 37.675C78.7472 39.3417 77.2472 40.5292 75.3097 41.2375L75.2472 41.5188C76.5805 42.0604 77.5284 42.925 78.0909 44.1125C78.6743 45.2792 78.9659 46.8208 78.9659 48.7375C78.9659 50.8625 78.5701 52.8 77.7784 54.55C77.0076 56.2792 75.9034 57.6438 74.4659 58.6438C73.0493 59.6229 71.3722 60.1125 69.4347 60.1125C66.6014 60.1125 64.4868 59.5813 63.0909 58.5188V55.2063C64.9659 56.6021 66.9347 57.3 68.9972 57.3C71.3305 57.3 73.0805 56.5604 74.2472 55.0813C75.4347 53.5813 76.0284 51.4667 76.0284 48.7375C76.0284 46.9042 75.643 45.4667 74.8722 44.425C74.1014 43.3833 73.0597 42.8625 71.7472 42.8625H69.1222L69.6847 40.175H71.9347ZM88.3747 60.1125C84.208 60.1125 82.1247 57.175 82.1247 51.3C82.1247 46.9458 82.7705 42.6333 84.0622 38.3625C85.3747 34.0917 87.0622 30.7896 89.1247 28.4563C91.208 26.1021 93.4789 24.925 95.9372 24.925C98.7289 24.925 100.541 26.4875 101.375 29.6125H101.562L102.781 25.5813H105.281L98.1247 59.4875H95.7497L96.3122 54.6125H96.1872C93.8122 58.2792 91.208 60.1125 88.3747 60.1125ZM88.9684 57.5188C90.8434 57.5188 92.5934 56.4354 94.2184 54.2688C95.8434 52.1021 97.2184 48.9354 98.3434 44.7688C99.4684 40.6021 100.031 36.675 100.031 32.9875C100.031 31.2583 99.6559 29.9563 98.9059 29.0813C98.1768 28.1854 97.1455 27.7375 95.8122 27.7375C93.9789 27.7375 92.2809 28.8 90.7184 30.925C89.1559 33.0292 87.8434 36.1229 86.7809 40.2063C85.7184 44.2896 85.1872 48.1333 85.1872 51.7375C85.1872 53.6333 85.458 55.0708 85.9997 56.05C86.5622 57.0292 87.5518 57.5188 88.9684 57.5188ZM103.127 52.4563C103.127 50.5813 103.408 48.9771 103.971 47.6438C104.533 46.2896 105.304 45.1021 106.283 44.0813C107.263 43.0396 109.096 41.7063 111.783 40.0813C113.804 38.8729 115.2 37.8938 115.971 37.1438C116.763 36.3938 117.367 35.5708 117.783 34.675C118.221 33.7583 118.44 32.6854 118.44 31.4563C118.44 30.2688 118.106 29.3521 117.44 28.7063C116.794 28.0604 115.846 27.7375 114.596 27.7375C113.533 27.7375 112.554 27.9042 111.658 28.2375C110.783 28.5708 109.908 28.9771 109.033 29.4563L108.19 26.925C110.377 25.5917 112.596 24.925 114.846 24.925C116.867 24.925 118.461 25.4771 119.627 26.5813C120.794 27.6854 121.377 29.2688 121.377 31.3313C121.377 32.8729 121.117 34.2375 120.596 35.425C120.075 36.6125 119.346 37.675 118.408 38.6125C117.492 39.55 115.877 40.7271 113.565 42.1438C112.606 42.7479 111.679 43.3417 110.783 43.925C109.888 44.5083 109.086 45.1854 108.377 45.9563C107.69 46.7271 107.138 47.6333 106.721 48.675C106.304 49.6958 106.096 50.9563 106.096 52.4563C106.096 54.0604 106.513 55.2792 107.346 56.1125C108.179 56.9458 109.377 57.3625 110.94 57.3625C112.169 57.3625 113.242 57.1438 114.158 56.7063C115.075 56.2688 115.898 55.7896 116.627 55.2688V58.4563C114.752 59.5604 112.711 60.1125 110.502 60.1125C108.252 60.1125 106.461 59.4354 105.127 58.0813C103.794 56.7271 103.127 54.8521 103.127 52.4563Z" fill="#FB0000"/>
<path d="M37.6484 59.4875V59.9875H38.0575L38.1385 59.5866L37.6484 59.4875ZM22.7422 59.4875L22.2532 59.3832L22.1243 59.9875H22.7422V59.4875ZM26.2734 42.925L26.7624 43.0293L26.8913 42.425H26.2734V42.925ZM18.8984 42.925V42.425H18.5787L18.4446 42.7152L18.8984 42.925ZM11.2422 59.4875V59.9875H11.5619L11.696 59.6973L11.2422 59.4875ZM8.08594 59.4875L7.63305 59.2756L7.3 59.9875H8.08594V59.4875ZM29.4609 13.8V13.3H29.1428L29.0081 13.5881L29.4609 13.8ZM47.3359 13.8L47.8244 13.9069L47.9571 13.3H47.3359V13.8ZM46.6797 16.8V17.3H47.0821L47.1681 16.9069L46.6797 16.8ZM34.8984 16.8V16.3H34.4924L34.4091 16.6974L34.8984 16.8ZM31.2734 34.0813L30.7841 33.9786L30.6577 34.5813H31.2734V34.0813ZM42.3984 34.0813L42.8864 34.1903L43.0225 33.5813H42.3984V34.0813ZM41.7422 37.0188V37.5188H42.1428L42.2302 37.1278L41.7422 37.0188ZM30.6172 37.0188V36.5188H30.2124L30.1281 36.9147L30.6172 37.0188ZM26.4609 56.55L25.9719 56.4459L25.8433 57.05H26.4609V56.55ZM38.2422 56.55L38.7323 56.6491L38.8534 56.05H38.2422V56.55ZM20.2422 39.8313L19.7884 39.6213L19.46 40.3313H20.2422V39.8313ZM26.8984 39.8313V40.3313H27.3035L27.3875 39.9351L26.8984 39.8313ZM31.7734 16.8625L32.2625 16.9663L32.3907 16.3625H31.7734V16.8625ZM30.8672 16.8625V16.3625H30.5476L30.4134 16.6526L30.8672 16.8625ZM37.6484 59.4875V58.9875H22.7422V59.4875V59.9875H37.6484V59.4875ZM22.7422 59.4875L23.2312 59.5918L26.7624 43.0293L26.2734 42.925L25.7844 42.8207L22.2532 59.3832L22.7422 59.4875ZM26.2734 42.925V42.425H18.8984V42.925V43.425H26.2734V42.925ZM18.8984 42.925L18.4446 42.7152L10.7883 59.2777L11.2422 59.4875L11.696 59.6973L19.3523 43.1348L18.8984 42.925ZM11.2422 59.4875V58.9875H8.08594V59.4875V59.9875H11.2422V59.4875ZM8.08594 59.4875L8.53882 59.6994L29.9138 14.0119L29.4609 13.8L29.0081 13.5881L7.63305 59.2756L8.08594 59.4875ZM29.4609 13.8V14.3H47.3359V13.8V13.3H29.4609V13.8ZM47.3359 13.8L46.8475 13.6932L46.1912 16.6932L46.6797 16.8L47.1681 16.9069L47.8244 13.9069L47.3359 13.8ZM46.6797 16.8V16.3H34.8984V16.8V17.3H46.6797V16.8ZM34.8984 16.8L34.4091 16.6974L30.7841 33.9786L31.2734 34.0813L31.7628 34.1839L35.3878 16.9027L34.8984 16.8ZM31.2734 34.0813V34.5813H42.3984V34.0813V33.5813H31.2734V34.0813ZM42.3984 34.0813L41.9105 33.9722L41.2542 36.9097L41.7422 37.0188L42.2302 37.1278L42.8864 34.1903L42.3984 34.0813ZM41.7422 37.0188V36.5188H30.6172V37.0188V37.5188H41.7422V37.0188ZM30.6172 37.0188L30.1281 36.9147L25.9719 56.4459L26.4609 56.55L26.95 56.6541L31.1062 37.1228L30.6172 37.0188ZM26.4609 56.55V57.05H38.2422V56.55V56.05H26.4609V56.55ZM38.2422 56.55L37.7521 56.4509L37.1583 59.3884L37.6484 59.4875L38.1385 59.5866L38.7323 56.6491L38.2422 56.55ZM20.2422 39.8313V40.3313H26.8984V39.8313V39.3313H20.2422V39.8313ZM26.8984 39.8313L27.3875 39.9351L32.2625 16.9663L31.7734 16.8625L31.2843 16.7587L26.4093 39.7274L26.8984 39.8313ZM31.7734 16.8625V16.3625H30.8672V16.8625V17.3625H31.7734V16.8625ZM30.8672 16.8625L30.4134 16.6526L19.7884 39.6213L20.2422 39.8313L20.696 40.0412L31.321 17.0724L30.8672 16.8625ZM59.8697 57.1438L60.2251 57.4954L60.2269 57.4936L59.8697 57.1438ZM45.9947 37.3L45.5208 37.1404L45.5201 37.1426L45.9947 37.3ZM51.4009 28.1125L51.7425 28.4777L51.7443 28.476L51.4009 28.1125ZM64.0572 26.8L63.7095 27.1593L63.7125 27.1622L64.0572 26.8ZM57.7447 42.3938L57.6482 41.9032L57.2447 41.9825V42.3938H57.7447ZM57.7447 42.5188H57.2447V42.9215L57.6382 43.0073L57.7447 42.5188ZM47.7134 43.675V43.175H47.2824L47.2189 43.6013L47.7134 43.675ZM48.4634 55.8L48.0737 56.1132L48.0765 56.1166L48.4634 55.8ZM57.8384 55.2688L58.2096 55.6038L58.2119 55.6013L57.8384 55.2688ZM58.1822 45.2063L57.8462 45.5766L57.85 45.58L58.1822 45.2063ZM48.1509 41.1125L47.6651 40.9943L47.5147 41.6125H48.1509V41.1125ZM58.4634 40.0813L58.6844 40.5298L58.687 40.5285L58.4634 40.0813ZM61.8072 37.05L61.3851 36.782L61.3821 36.7868L61.8072 37.05ZM61.8697 28.8625L61.5113 29.2114L61.5209 29.2207L61.8697 28.8625ZM62.8072 49.5188H62.3072C62.3072 52.4858 61.3696 54.8973 59.5124 56.7939L59.8697 57.1438L60.2269 57.4936C62.2865 55.3902 63.3072 52.7183 63.3072 49.5188H62.8072ZM59.8697 57.1438L59.5143 56.7921C57.6617 58.6643 55.254 59.6125 52.2447 59.6125V60.1125V60.6125C55.4853 60.6125 58.161 59.5815 60.2251 57.4954L59.8697 57.1438ZM52.2447 60.1125V59.6125C49.5931 59.6125 47.6893 58.8452 46.4363 57.3881C45.1709 55.9165 44.4947 53.6565 44.4947 50.5188H43.9947H43.4947C43.4947 53.7768 44.1935 56.3137 45.6781 58.0401C47.1751 59.7809 49.3963 60.6125 52.2447 60.6125V60.1125ZM43.9947 50.5188H44.4947C44.4947 45.7737 45.1548 41.4213 46.4693 37.4574L45.9947 37.3L45.5201 37.1426C44.1679 41.2204 43.4947 45.6805 43.4947 50.5188H43.9947ZM45.9947 37.3L46.4685 37.4596C47.8058 33.4891 49.5714 30.508 51.7425 28.4777L51.4009 28.1125L51.0594 27.7473C48.7305 29.9253 46.892 33.0693 45.5208 37.1404L45.9947 37.3ZM51.4009 28.1125L51.7443 28.476C53.9124 26.4283 56.3137 25.425 58.9634 25.425V24.925V24.425C56.0298 24.425 53.3895 25.5467 51.0576 27.749L51.4009 28.1125ZM58.9634 24.925V25.425C60.9616 25.425 62.5269 26.0148 63.7095 27.1593L64.0572 26.8L64.4049 26.4407C63.0042 25.0852 61.1736 24.425 58.9634 24.425V24.925ZM64.0572 26.8L63.7125 27.1622C64.8924 28.2851 65.4947 29.7623 65.4947 31.6438H65.9947H66.4947C66.4947 29.5252 65.8053 27.7733 64.4019 26.4378L64.0572 26.8ZM65.9947 31.6438H65.4947C65.4947 34.3861 64.7807 36.6484 63.3801 38.4633L63.7759 38.7688L64.1718 39.0742C65.7295 37.0557 66.4947 34.5681 66.4947 31.6438H65.9947ZM63.7759 38.7688L63.3801 38.4633C61.9804 40.277 60.08 41.4248 57.6482 41.9032L57.7447 42.3938L57.8412 42.8844C60.4928 42.3627 62.6131 41.0939 64.1718 39.0742L63.7759 38.7688ZM57.7447 42.3938H57.2447V42.5188H57.7447H58.2447V42.3938H57.7447ZM57.7447 42.5188L57.6382 43.0073C59.1552 43.3379 60.2921 44.0665 61.0874 45.1837L61.4947 44.8938L61.902 44.6038C60.9473 43.2626 59.5842 42.4079 57.8512 42.0302L57.7447 42.5188ZM61.4947 44.8938L61.0874 45.1837C61.8895 46.3105 62.3072 47.7444 62.3072 49.5188H62.8072H63.3072C63.3072 47.5848 62.8499 45.9354 61.902 44.6038L61.4947 44.8938ZM47.7134 43.675L47.2189 43.6013C46.7806 46.5445 46.5572 48.793 46.5572 50.3313H47.0572H47.5572C47.5572 48.8695 47.7713 46.6805 48.208 43.7487L47.7134 43.675ZM47.0572 50.3313H46.5572C46.5572 52.8555 47.0312 54.8159 48.0737 56.1132L48.4634 55.8L48.8532 55.4868C48.0207 54.4508 47.5572 52.7653 47.5572 50.3313H47.0572ZM48.4634 55.8L48.0765 56.1166C49.1312 57.4058 50.6755 58.0188 52.6197 58.0188V57.5188V57.0188C50.8972 57.0188 49.6707 56.4859 48.8504 55.4834L48.4634 55.8ZM52.6197 57.5188V58.0188C54.8779 58.0188 56.7552 57.2148 58.2096 55.6038L57.8384 55.2688L57.4673 54.9337C56.2133 56.3227 54.6115 57.0188 52.6197 57.0188V57.5188ZM57.8384 55.2688L58.2119 55.6013C59.6571 53.9781 60.3697 51.9595 60.3697 49.5813H59.8697H59.3697C59.3697 51.7447 58.7281 53.5177 57.465 54.9363L57.8384 55.2688ZM59.8697 49.5813H60.3697C60.3697 47.5635 59.7738 45.952 58.5144 44.8325L58.1822 45.2063L57.85 45.58C58.8406 46.4605 59.3697 47.7656 59.3697 49.5813H59.8697ZM58.1822 45.2063L58.5182 44.836C57.2709 43.7042 55.5188 43.175 53.3384 43.175V43.675V44.175C55.3664 44.175 56.8435 44.6666 57.8462 45.5765L58.1822 45.2063ZM53.3384 43.675V43.175H47.7134V43.675V44.175H53.3384V43.675ZM58.5259 27.675V27.175C55.9327 27.175 53.7428 28.3483 51.9752 30.6178L52.3697 30.925L52.7642 31.2322C54.3716 29.1684 56.2859 28.175 58.5259 28.175V27.675ZM52.3697 30.925L51.9752 30.6178C50.2234 32.8671 48.7963 36.3438 47.6651 40.9943L48.1509 41.1125L48.6368 41.2307C49.7556 36.6312 51.141 33.3163 52.7642 31.2322L52.3697 30.925ZM48.1509 41.1125V41.6125H53.8384V41.1125V40.6125H48.1509V41.1125ZM53.8384 41.1125V41.6125C55.596 41.6125 57.2141 41.2539 58.6844 40.5298L58.4634 40.0813L58.2425 39.6327C56.9211 40.2836 55.4559 40.6125 53.8384 40.6125V41.1125ZM58.4634 40.0813L58.687 40.5285C60.1844 39.7798 61.3697 38.7067 62.2323 37.3132L61.8072 37.05L61.3821 36.7868C60.6197 38.0183 59.5758 38.966 58.2398 39.634L58.4634 40.0813ZM61.8072 37.05L62.2293 37.318C63.1247 35.9077 63.5572 34.1841 63.5572 32.175H63.0572H62.5572C62.5572 34.0409 62.1563 35.5673 61.3851 36.782L61.8072 37.05ZM63.0572 32.175H63.5572C63.5572 30.6451 63.1335 29.3952 62.2185 28.5043L61.8697 28.8625L61.5209 29.2207C62.1892 29.8714 62.5572 30.8299 62.5572 32.175H63.0572ZM61.8697 28.8625L62.2279 28.5137C61.3357 27.5973 60.0743 27.175 58.5259 27.175V27.675V28.175C59.8943 28.175 60.862 28.5444 61.5115 29.2113L61.8697 28.8625ZM70.4659 28.8938L70.0021 29.0804L70.2288 29.6438L70.7382 29.3131L70.4659 28.8938ZM69.4347 26.3313L69.1941 25.8929L68.8052 26.1064L68.9708 26.5179L69.4347 26.3313ZM79.7472 26.7063L79.3778 27.0432L79.381 27.0467L79.7472 26.7063ZM79.8097 37.675L80.2313 37.9438L80.2328 37.9414L79.8097 37.675ZM75.3097 41.2375L75.138 40.7679L74.881 40.8619L74.8216 41.129L75.3097 41.2375ZM75.2472 41.5188L74.7591 41.4103L74.6674 41.8229L75.059 41.982L75.2472 41.5188ZM78.0909 44.1125L77.639 44.3266L77.6437 44.3361L78.0909 44.1125ZM77.7784 54.55L77.3229 54.3439L77.3218 54.3464L77.7784 54.55ZM74.4659 58.6438L74.7502 59.0551L74.7515 59.0542L74.4659 58.6438ZM63.0909 58.5188H62.5909V58.7665L62.7881 58.9166L63.0909 58.5188ZM63.0909 55.2063L63.3895 54.8052L62.5909 54.2107V55.2063H63.0909ZM74.2472 55.0813L73.8552 54.7709L73.8546 54.7716L74.2472 55.0813ZM74.8722 44.425L74.4703 44.7224L74.8722 44.425ZM69.1222 42.8625L68.6328 42.7601L68.5067 43.3625H69.1222V42.8625ZM69.6847 40.175V39.675H69.2785L69.1953 40.0726L69.6847 40.175ZM71.9347 40.175V40.675C73.9183 40.675 75.5968 39.7984 76.9496 38.113L76.5597 37.8L76.1698 37.487C74.9809 38.9682 73.5761 39.675 71.9347 39.675V40.175ZM76.5597 37.8L76.9496 38.113C78.2988 36.432 78.9659 34.4124 78.9659 32.0813H78.4659H77.9659C77.9659 34.2085 77.3623 36.0013 76.1698 37.487L76.5597 37.8ZM78.4659 32.0813H78.9659C78.9659 30.5686 78.627 29.3407 77.8612 28.4891C77.0862 27.6274 75.9534 27.2375 74.5597 27.2375V27.7375V28.2375C75.7702 28.2375 76.5904 28.5716 77.1176 29.1578C77.6538 29.7541 77.9659 30.6981 77.9659 32.0813H78.4659ZM74.5597 27.7375V27.2375C72.9303 27.2375 71.4695 27.6462 70.1937 28.4744L70.4659 28.8938L70.7382 29.3131C71.8374 28.5996 73.1057 28.2375 74.5597 28.2375V27.7375ZM70.4659 28.8938L70.9298 28.7071L69.8985 26.1446L69.4347 26.3313L68.9708 26.5179L70.0021 29.0804L70.4659 28.8938ZM69.4347 26.3313L69.6752 26.7696C71.3079 25.8736 73.079 25.425 74.9972 25.425V24.925V24.425C72.9154 24.425 70.9782 24.9139 69.1941 25.8929L69.4347 26.3313ZM74.9972 24.925V25.425C76.984 25.425 78.4153 25.9882 79.3778 27.0432L79.7472 26.7063L80.1166 26.3693C78.9124 25.0493 77.177 24.425 74.9972 24.425V24.925ZM79.7472 26.7063L79.381 27.0467C80.3744 28.1151 80.9034 29.6449 80.9034 31.7063H81.4034H81.9034C81.9034 29.4759 81.3283 27.6725 80.1134 26.3658L79.7472 26.7063ZM81.4034 31.7063H80.9034C80.9034 33.918 80.3917 35.8122 79.3866 37.4086L79.8097 37.675L80.2328 37.9414C81.3527 36.1628 81.9034 34.0778 81.9034 31.7063H81.4034ZM79.8097 37.675L79.3881 37.4062C78.3873 38.9761 76.9773 40.0955 75.138 40.7679L75.3097 41.2375L75.4814 41.7071C77.5171 40.9628 79.1071 39.7073 80.2313 37.9438L79.8097 37.675ZM75.3097 41.2375L74.8216 41.129L74.7591 41.4103L75.2472 41.5188L75.7353 41.6272L75.7978 41.346L75.3097 41.2375ZM75.2472 41.5188L75.059 41.982C76.2883 42.4814 77.1355 43.2634 77.6391 44.3265L78.0909 44.1125L78.5428 43.8985C77.9214 42.5866 76.8727 41.6394 75.4354 41.0555L75.2472 41.5188ZM78.0909 44.1125L77.6437 44.3361C78.1799 45.4085 78.4659 46.8648 78.4659 48.7375H78.9659H79.4659C79.4659 46.7768 79.1686 45.1498 78.5382 43.8889L78.0909 44.1125ZM78.9659 48.7375H78.4659C78.4659 50.799 78.0823 52.6653 77.3229 54.3439L77.7784 54.55L78.234 54.7561C79.0579 52.9347 79.4659 50.926 79.4659 48.7375H78.9659ZM77.7784 54.55L77.3218 54.3464C76.5849 55.9993 75.537 57.2896 74.1804 58.2333L74.4659 58.6438L74.7515 59.0542C76.2699 57.9979 77.4303 56.559 78.2351 54.7536L77.7784 54.55ZM74.4659 58.6438L74.1817 58.2324C72.8588 59.1468 71.2838 59.6125 69.4347 59.6125V60.1125V60.6125C71.4606 60.6125 73.2398 60.0991 74.7502 59.0551L74.4659 58.6438ZM69.4347 60.1125V59.6125C66.6486 59.6125 64.6635 59.0874 63.3938 58.1209L63.0909 58.5188L62.7881 58.9166C64.3101 60.0751 66.5541 60.6125 69.4347 60.6125V60.1125ZM63.0909 58.5188H63.5909V55.2063H63.0909H62.5909V58.5188H63.0909ZM63.0909 55.2063L62.7924 55.6073C64.7416 57.0584 66.813 57.8 68.9972 57.8V57.3V56.8C67.0564 56.8 65.1903 56.1457 63.3895 54.8052L63.0909 55.2063ZM68.9972 57.3V57.8C71.4434 57.8 73.3559 57.0187 74.6398 55.3909L74.2472 55.0813L73.8546 54.7716C72.8052 56.1021 71.2177 56.8 68.9972 56.8V57.3ZM74.2472 55.0813L74.6392 55.3916C75.921 53.7725 76.5284 51.5325 76.5284 48.7375H76.0284H75.5284C75.5284 51.4009 74.9483 53.39 73.8552 54.7709L74.2472 55.0813ZM76.0284 48.7375H76.5284C76.5284 46.8402 76.1302 45.2845 75.2741 44.1276L74.8722 44.425L74.4703 44.7224C75.1558 45.6488 75.5284 46.9682 75.5284 48.7375H76.0284ZM74.8722 44.425L75.2741 44.1276C74.4076 42.9566 73.2158 42.3625 71.7472 42.3625V42.8625V43.3625C72.9036 43.3625 73.7952 43.8101 74.4703 44.7224L74.8722 44.425ZM71.7472 42.8625V42.3625H69.1222V42.8625V43.3625H71.7472V42.8625ZM69.1222 42.8625L69.6116 42.9649L70.1741 40.2774L69.6847 40.175L69.1953 40.0726L68.6328 42.7601L69.1222 42.8625ZM69.6847 40.175V40.675H71.9347V40.175V39.675H69.6847V40.175ZM84.0622 38.3625L83.5843 38.2156L83.5836 38.2178L84.0622 38.3625ZM89.1247 28.4563L88.7503 28.1249L88.7501 28.1251L89.1247 28.4563ZM101.375 29.6125L100.892 29.7413L100.991 30.1125H101.375V29.6125ZM101.562 29.6125V30.1125H101.933L102.041 29.7572L101.562 29.6125ZM102.781 25.5813V25.0813H102.41L102.302 25.4366L102.781 25.5813ZM105.281 25.5813L105.77 25.6845L105.897 25.0813H105.281V25.5813ZM98.1247 59.4875V59.9875H98.5302L98.6139 59.5908L98.1247 59.4875ZM95.7497 59.4875L95.253 59.4302L95.1887 59.9875H95.7497V59.4875ZM96.3122 54.6125L96.8089 54.6698L96.8732 54.1125H96.3122V54.6125ZM96.1872 54.6125V54.1125H95.9153L95.7675 54.3407L96.1872 54.6125ZM94.2184 54.2688L93.8184 53.9688L94.2184 54.2688ZM98.9059 29.0813L98.518 29.397L98.5263 29.4066L98.9059 29.0813ZM90.7184 30.925L91.1199 31.2231L91.1213 31.2212L90.7184 30.925ZM85.9997 56.05L85.5621 56.2921L85.5661 56.2991L85.9997 56.05ZM88.3747 60.1125V59.6125C86.4242 59.6125 85.0272 58.9345 84.095 57.6201C83.1405 56.2742 82.6247 54.1936 82.6247 51.3H82.1247H81.6247C81.6247 54.2814 82.1506 56.6071 83.2794 58.1986C84.4305 59.8217 86.1585 60.6125 88.3747 60.6125V60.1125ZM82.1247 51.3H82.6247C82.6247 46.9961 83.263 42.7323 84.5408 38.5072L84.0622 38.3625L83.5836 38.2178C82.2781 42.5344 81.6247 46.8956 81.6247 51.3H82.1247ZM84.0622 38.3625L84.5401 38.5094C85.8401 34.2792 87.4999 31.0494 89.4993 28.7874L89.1247 28.4563L88.7501 28.1251C86.6245 30.5298 84.9093 33.9041 83.5843 38.2156L84.0622 38.3625ZM89.1247 28.4563L89.4991 28.7876C91.5158 26.5087 93.6598 25.425 95.9372 25.425V24.925V24.425C93.2979 24.425 90.9002 25.6955 88.7503 28.1249L89.1247 28.4563ZM95.9372 24.925V25.425C97.2343 25.425 98.2632 25.7853 99.0639 26.4756C99.8714 27.1718 100.492 28.2426 100.892 29.7413L101.375 29.6125L101.858 29.4837C101.424 27.8574 100.722 26.5845 99.7168 25.7182C98.705 24.8459 97.4318 24.425 95.9372 24.425V24.925ZM101.375 29.6125V30.1125H101.562V29.6125V29.1125H101.375V29.6125ZM101.562 29.6125L102.041 29.7572L103.26 25.7259L102.781 25.5813L102.302 25.4366L101.084 29.4678L101.562 29.6125ZM102.781 25.5813V26.0813H105.281V25.5813V25.0813H102.781V25.5813ZM105.281 25.5813L104.792 25.478L97.6355 59.3842L98.1247 59.4875L98.6139 59.5908L105.77 25.6845L105.281 25.5813ZM98.1247 59.4875V58.9875H95.7497V59.4875V59.9875H98.1247V59.4875ZM95.7497 59.4875L96.2464 59.5448L96.8089 54.6698L96.3122 54.6125L95.8155 54.5552L95.253 59.4302L95.7497 59.4875ZM96.3122 54.6125V54.1125H96.1872V54.6125V55.1125H96.3122V54.6125ZM96.1872 54.6125L95.7675 54.3407C93.4322 57.9462 90.9604 59.6125 88.3747 59.6125V60.1125V60.6125C91.4556 60.6125 94.1922 58.6122 96.6069 54.8843L96.1872 54.6125ZM88.9684 57.5188V58.0188C91.0622 58.0188 92.9432 56.8024 94.6184 54.5688L94.2184 54.2688L93.8184 53.9688C92.2437 56.0684 90.6247 57.0188 88.9684 57.0188V57.5188ZM94.2184 54.2688L94.6184 54.5688C96.2974 52.3302 97.6933 49.095 98.8262 44.8991L98.3434 44.7688L97.8607 44.6384C96.7436 48.7759 95.3895 51.874 93.8184 53.9688L94.2184 54.2688ZM98.3434 44.7688L98.8262 44.8991C99.9607 40.697 100.531 36.7257 100.531 32.9875H100.031H99.5309C99.5309 36.6243 98.9762 40.5072 97.8607 44.6384L98.3434 44.7688ZM100.031 32.9875H100.531C100.531 31.1967 100.144 29.7573 99.2856 28.7559L98.9059 29.0813L98.5263 29.4066C99.1679 30.1552 99.5309 31.32 99.5309 32.9875H100.031ZM98.9059 29.0813L99.2937 28.7656C98.4543 27.7343 97.2699 27.2375 95.8122 27.2375V27.7375V28.2375C97.0211 28.2375 97.8992 28.6365 98.5182 29.3969L98.9059 29.0813ZM95.8122 27.7375V27.2375C93.7582 27.2375 91.9286 28.4351 90.3156 30.6288L90.7184 30.925L91.1213 31.2212C92.6333 29.1649 94.1996 28.2375 95.8122 28.2375V27.7375ZM90.7184 30.925L90.317 30.6269C88.7 32.8045 87.3671 35.9682 86.2971 40.0803L86.7809 40.2063L87.2648 40.3322C88.3198 36.2777 89.6119 33.2538 91.1199 31.2231L90.7184 30.925ZM86.7809 40.2063L86.2971 40.0803C85.2256 44.198 84.6872 48.0844 84.6872 51.7375H85.1872H85.6872C85.6872 48.1823 86.2113 44.3812 87.2648 40.3322L86.7809 40.2063ZM85.1872 51.7375H84.6872C84.6872 53.6664 84.9603 55.2039 85.5622 56.292L85.9997 56.05L86.4372 55.808C85.9558 54.9377 85.6872 53.6003 85.6872 51.7375H85.1872ZM85.9997 56.05L85.5661 56.2991C86.2414 57.4746 87.4258 58.0188 88.9684 58.0188V57.5188V57.0188C87.6777 57.0188 86.883 56.5838 86.4332 55.8009L85.9997 56.05ZM103.971 47.6438L104.432 47.8381L104.433 47.8356L103.971 47.6438ZM106.283 44.0813L106.644 44.4274L106.648 44.4237L106.283 44.0813ZM111.783 40.0813L111.527 39.6521L111.525 39.6534L111.783 40.0813ZM115.971 37.1438L115.627 36.7807L115.622 36.7854L115.971 37.1438ZM117.783 34.675L117.332 34.4596L117.33 34.4641L117.783 34.675ZM117.44 28.7063L117.086 29.0599L117.092 29.0654L117.44 28.7063ZM111.658 28.2375L111.484 27.7689L111.48 27.7703L111.658 28.2375ZM109.033 29.4563L108.559 29.6144L108.748 30.1824L109.274 29.8948L109.033 29.4563ZM108.19 26.925L107.929 26.4981L107.589 26.7053L107.715 27.0831L108.19 26.925ZM119.627 26.5813L119.971 26.2181L119.971 26.2181L119.627 26.5813ZM118.408 38.6125L118.055 38.2589L118.051 38.2629L118.408 38.6125ZM113.565 42.1438L113.303 41.7174L113.298 41.7208L113.565 42.1438ZM110.783 43.925L110.511 43.506L110.783 43.925ZM108.377 45.9563L108.009 45.6179L108.004 45.6234L108.377 45.9563ZM106.721 48.675L107.184 48.864L107.185 48.8607L106.721 48.675ZM116.627 55.2688H117.127V54.2972L116.337 54.8619L116.627 55.2688ZM116.627 58.4563L116.881 58.8871L117.127 58.7421V58.4563H116.627ZM103.127 52.4563H103.627C103.627 50.6292 103.902 49.0947 104.432 47.8381L103.971 47.6438L103.51 47.4494C102.915 48.8595 102.627 50.5334 102.627 52.4563H103.127ZM103.971 47.6438L104.433 47.8356C104.972 46.5365 105.71 45.4018 106.644 44.4274L106.283 44.0813L105.923 43.7351C104.899 44.8023 104.095 46.0427 103.509 47.4519L103.971 47.6438ZM106.283 44.0813L106.648 44.4237C107.577 43.4356 109.359 42.1318 112.042 40.5091L111.783 40.0813L111.525 39.6534C108.833 41.2807 106.949 42.6436 105.919 43.7388L106.283 44.0813ZM111.783 40.0813L112.04 40.5104C114.064 39.2999 115.504 38.2958 116.32 37.5021L115.971 37.1438L115.622 36.7854C114.896 37.4917 113.544 38.4459 111.527 39.6521L111.783 40.0813ZM115.971 37.1438L116.315 37.5067C117.147 36.7179 117.791 35.8445 118.237 34.8859L117.783 34.675L117.33 34.4641C116.943 35.2972 116.378 36.0696 115.627 36.7808L115.971 37.1438ZM117.783 34.675L118.235 34.8904C118.71 33.8938 118.94 32.7445 118.94 31.4563H118.44H117.94C117.94 32.6263 117.732 33.6229 117.332 34.4596L117.783 34.675ZM118.44 31.4563H118.94C118.94 30.1732 118.577 29.1117 117.788 28.3471L117.44 28.7063L117.092 29.0654C117.636 29.5925 117.94 30.3643 117.94 31.4563H118.44ZM117.44 28.7063L117.793 28.3527C117.023 27.5828 115.929 27.2375 114.596 27.2375V27.7375V28.2375C115.763 28.2375 116.564 28.538 117.086 29.0598L117.44 28.7063ZM114.596 27.7375V27.2375C113.481 27.2375 112.442 27.4126 111.484 27.7689L111.658 28.2375L111.833 28.7061C112.667 28.3957 113.586 28.2375 114.596 28.2375V27.7375ZM111.658 28.2375L111.48 27.7703C110.583 28.1122 109.687 28.5283 108.793 29.0177L109.033 29.4563L109.274 29.8948C110.13 29.4259 110.984 29.0294 111.836 28.7047L111.658 28.2375ZM109.033 29.4563L109.508 29.2981L108.664 26.7669L108.19 26.925L107.715 27.0831L108.559 29.6144L109.033 29.4563ZM108.19 26.925L108.45 27.3519C110.57 26.0596 112.7 25.425 114.846 25.425V24.925V24.425C112.492 24.425 110.184 25.1237 107.929 26.4981L108.19 26.925ZM114.846 24.925V25.425C116.773 25.425 118.232 25.9493 119.284 26.9444L119.627 26.5813L119.971 26.2181C118.689 25.0049 116.96 24.425 114.846 24.425V24.925ZM119.627 26.5813L119.284 26.9444C120.324 27.9291 120.877 29.3649 120.877 31.3313H121.377H121.877C121.877 29.1726 121.264 27.4417 119.971 26.2181L119.627 26.5813ZM121.377 31.3313H120.877C120.877 32.8166 120.626 34.1108 120.138 35.2242L120.596 35.425L121.054 35.6258C121.607 34.3642 121.877 32.9292 121.877 31.3313H121.377ZM120.596 35.425L120.138 35.2242C119.643 36.3534 118.949 37.3644 118.055 38.2589L118.408 38.6125L118.762 38.9661C119.742 37.9856 120.507 36.8716 121.054 35.6258L120.596 35.425ZM118.408 38.6125L118.051 38.2629C117.18 39.1538 115.61 40.3045 113.304 41.7174L113.565 42.1438L113.826 42.5701C116.144 41.1497 117.804 39.9462 118.766 38.9621L118.408 38.6125ZM113.565 42.1438L113.298 41.7208C112.338 42.3262 111.409 42.9213 110.511 43.506L110.783 43.925L111.056 44.344C111.95 43.7621 112.875 43.1697 113.831 42.5667L113.565 42.1438ZM110.783 43.925L110.511 43.506C109.581 44.1117 108.746 44.8157 108.009 45.6179L108.377 45.9563L108.745 46.2946C109.425 45.5552 110.195 44.905 111.056 44.344L110.783 43.925ZM108.377 45.9563L108.004 45.6234C107.275 46.4412 106.693 47.3983 106.257 48.4893L106.721 48.675L107.185 48.8607C107.582 47.8683 108.105 47.0129 108.75 46.2891L108.377 45.9563ZM106.721 48.675L106.258 48.4861C105.81 49.5843 105.596 50.9134 105.596 52.4563H106.096H106.596C106.596 50.9991 106.799 49.8074 107.184 48.864L106.721 48.675ZM106.096 52.4563H105.596C105.596 54.1439 106.035 55.5092 106.992 56.4661L107.346 56.1125L107.7 55.7589C106.99 55.0492 106.596 53.9769 106.596 52.4563H106.096ZM107.346 56.1125L106.992 56.4661C107.947 57.4206 109.289 57.8625 110.94 57.8625V57.3625V56.8625C109.465 56.8625 108.412 56.471 107.7 55.7589L107.346 56.1125ZM110.94 57.3625V57.8625C112.228 57.8625 113.377 57.6331 114.374 57.1575L114.158 56.7063L113.943 56.255C113.106 56.6544 112.11 56.8625 110.94 56.8625V57.3625ZM114.158 56.7063L114.374 57.1575C115.313 56.7091 116.162 56.2155 116.918 55.6756L116.627 55.2688L116.337 54.8619C115.634 55.3637 114.837 55.8284 113.943 56.255L114.158 56.7063ZM116.627 55.2688H116.127V58.4563H116.627H117.127V55.2688H116.627ZM116.627 58.4563L116.373 58.0254C114.577 59.0836 112.623 59.6125 110.502 59.6125V60.1125V60.6125C112.798 60.6125 114.928 60.0372 116.881 58.8871L116.627 58.4563ZM110.502 60.1125V59.6125C108.36 59.6125 106.706 58.9718 105.483 57.7305L105.127 58.0813L104.771 58.4321C106.215 59.8991 108.145 60.6125 110.502 60.6125V60.1125ZM105.127 58.0813L105.483 57.7305C104.265 56.4926 103.627 54.7568 103.627 52.4563H103.127H102.627C102.627 54.9474 103.323 56.9615 104.771 58.4321L105.127 58.0813Z" fill="#FFCB3D"/>
</g>
<defs>
<filter id="filter0_d_3_61" x="-1.23978e-05" y="2.86102e-06" width="129.177" height="61.9125" filterUnits="userSpaceOnUse" color-interpolation-filters="sRGB">
<feFlood flood-opacity="0" result="BackgroundImageFix"/>
<feColorMatrix in="SourceAlpha" type="matrix" values="0 0 0 0 0 0 0 0 0 0 0 0 0 0 0 0 0 0 127 0" result="hardAlpha"/>
<feOffset dy="-6"/>
<feGaussianBlur stdDeviation="3.65"/>
<feComposite in2="hardAlpha" operator="out"/>
<feColorMatrix type="matrix" values="0 0 0 0 0.134615 0 0 0 0 0.134615 0 0 0 0 0.134615 0 0 0 0.25 0"/>
<feBlend mode="normal" in2="BackgroundImageFix" result="effect1_dropShadow_3_61"/>
<feBlend mode="normal" in="SourceGraphic" in2="effect1_dropShadow_3_61" result="shape"/>
</filter>
</defs>
</svg>
