<svg width="157" height="49" viewBox="0 0 157 49" fill="none" xmlns="http://www.w3.org/2000/svg">
<g filter="url(#filter0_i_3_61)">
<path d="M43.2183 46.6875H22.7496V35.1562H13.4058L9.87457 46.6875H1.37457L16.1558 1H43.2183V8.34375H31.2496V19.2188H42.3433V26.5938H31.2496V39.25H43.2183V46.6875ZM21.5308 8.34375L21.0933 9.875L15.7808 27.625H22.7496V8.34375H21.5308ZM74.2808 20.9062C74.2808 22.8646 73.6975 24.5 72.5308 25.8125C71.385 27.1042 69.7079 27.9375 67.4996 28.3125V28.5625C69.9371 28.875 71.8433 29.7188 73.2183 31.0938C74.6142 32.4479 75.3121 34.2083 75.3121 36.375C75.3121 39.7083 74.135 42.2604 71.7808 44.0312C69.4267 45.8021 66.0621 46.6875 61.6871 46.6875H49.4683V11.875H61.6246C70.0621 11.875 74.2808 14.8854 74.2808 20.9062ZM66.6871 35.875C66.6871 34.3958 66.2079 33.3333 65.2496 32.6875C64.2912 32.0417 62.8433 31.7188 60.9058 31.7188H57.7808V40.4688H61.0308C64.8017 40.4688 66.6871 38.9375 66.6871 35.875ZM65.7808 21.6562C65.7808 19.3646 64.26 18.2188 61.2183 18.2188H57.7808V25.5625H60.2808C62.1142 25.5625 63.4892 25.2708 64.4058 24.6875C65.3225 24.0833 65.7808 23.0729 65.7808 21.6562ZM87.5621 25.4375C89.4579 25.4375 90.8642 25.1354 91.7808 24.5312C92.7183 23.9271 93.1871 22.8854 93.1871 21.4062C93.1871 19.0104 91.5933 17.8125 88.4058 17.8125C87.2808 17.8125 86.2392 17.9792 85.2808 18.3125C84.3225 18.625 83.2912 19.125 82.1871 19.8125L79.1871 13.7812C82.0829 12.0729 85.3017 11.2188 88.8433 11.2188C92.5308 11.2188 95.4683 12.0417 97.6558 13.6875C99.8433 15.3333 100.937 17.5833 100.937 20.4375C100.937 24.4167 98.7392 27.0208 94.3433 28.25V28.5C96.76 29.0625 98.6037 30.0938 99.8746 31.5938C101.145 33.0938 101.781 35.0104 101.781 37.3438C101.781 40.4271 100.604 42.8646 98.2496 44.6562C95.9162 46.4271 92.6767 47.3125 88.5308 47.3125C86.6142 47.3125 84.7808 47.1042 83.0308 46.6875C81.3017 46.25 79.8433 45.6979 78.6558 45.0312V38.0625C81.5517 39.6667 84.5829 40.4688 87.7496 40.4688C91.5412 40.4688 93.4371 39.0625 93.4371 36.25C93.4371 34.75 92.9787 33.6146 92.0621 32.8438C91.1662 32.0521 89.6662 31.6562 87.5621 31.6562H84.1558V25.4375H87.5621ZM124.531 46.6875L122.875 41.9375H122.687C121.458 43.9792 120.187 45.3854 118.875 46.1562C117.562 46.9271 115.906 47.3125 113.906 47.3125C111.343 47.3125 109.322 46.3542 107.843 44.4375C106.385 42.5208 105.656 39.8542 105.656 36.4375C105.656 32.7708 106.656 30.0521 108.656 28.2812C110.677 26.4896 113.687 25.5 117.687 25.3125L122.312 25.125V22.625C122.312 19.375 120.906 17.75 118.093 17.75C116.01 17.75 113.614 18.5625 110.906 20.1875L108.031 14.4375C111.489 12.25 115.25 11.1562 119.312 11.1562C123 11.1562 125.802 12.2188 127.718 14.3438C129.656 16.4479 130.625 19.4375 130.625 23.3125V46.6875H124.531ZM117.312 40.8125C118.833 40.8125 120.041 40.1354 120.937 38.7812C121.854 37.4062 122.312 35.5833 122.312 33.3125V30.375L119.75 30.5C117.854 30.6042 116.458 31.1458 115.562 32.125C114.687 33.1042 114.25 34.5625 114.25 36.5C114.25 39.375 115.27 40.8125 117.312 40.8125ZM155.437 11.875V18.5938H145.656V46.6875H137.343V11.875H155.437Z" fill="#FB0000"/>
</g>
<path d="M43.2183 46.6875V47.6875H44.2183V46.6875H43.2183ZM22.7496 46.6875H21.7496V47.6875H22.7496V46.6875ZM22.7496 35.1562H23.7496V34.1562H22.7496V35.1562ZM13.4058 35.1562V34.1562H12.6662L12.4497 34.8634L13.4058 35.1562ZM9.87457 46.6875V47.6875H10.6142L10.8307 46.9803L9.87457 46.6875ZM1.37457 46.6875L0.423128 46.3797L9.90772e-06 47.6875H1.37457V46.6875ZM16.1558 1V0H15.4283L15.2044 0.69218L16.1558 1ZM43.2183 1H44.2183V0H43.2183V1ZM43.2183 8.34375V9.34375H44.2183V8.34375H43.2183ZM31.2496 8.34375V7.34375H30.2496V8.34375H31.2496ZM31.2496 19.2188H30.2496V20.2188H31.2496V19.2188ZM42.3433 19.2188H43.3433V18.2188H42.3433V19.2188ZM42.3433 26.5938V27.5938H43.3433V26.5938H42.3433ZM31.2496 26.5938V25.5938H30.2496V26.5938H31.2496ZM31.2496 39.25H30.2496V40.25H31.2496V39.25ZM43.2183 39.25H44.2183V38.25H43.2183V39.25ZM21.5308 8.34375V7.34375H20.7765L20.5693 8.06903L21.5308 8.34375ZM21.0933 9.875L22.0514 10.1618L22.0548 10.1497L21.0933 9.875ZM15.7808 27.625L14.8228 27.3383L14.4377 28.625H15.7808V27.625ZM22.7496 27.625V28.625H23.7496V27.625H22.7496ZM22.7496 8.34375H23.7496V7.34375H22.7496V8.34375ZM43.2183 46.6875V45.6875H22.7496V46.6875V47.6875H43.2183V46.6875ZM22.7496 46.6875H23.7496V35.1562H22.7496H21.7496V46.6875H22.7496ZM22.7496 35.1562V34.1562H13.4058V35.1562V36.1562H22.7496V35.1562ZM13.4058 35.1562L12.4497 34.8634L8.9184 46.3947L9.87457 46.6875L10.8307 46.9803L14.362 35.4491L13.4058 35.1562ZM9.87457 46.6875V45.6875H1.37457V46.6875V47.6875H9.87457V46.6875ZM1.37457 46.6875L2.32602 46.9953L17.1073 1.30782L16.1558 1L15.2044 0.69218L0.423128 46.3797L1.37457 46.6875ZM16.1558 1V2H43.2183V1V0H16.1558V1ZM43.2183 1H42.2183V8.34375H43.2183H44.2183V1H43.2183ZM43.2183 8.34375V7.34375H31.2496V8.34375V9.34375H43.2183V8.34375ZM31.2496 8.34375H30.2496V19.2188H31.2496H32.2496V8.34375H31.2496ZM31.2496 19.2188V20.2188H42.3433V19.2188V18.2188H31.2496V19.2188ZM42.3433 19.2188H41.3433V26.5938H42.3433H43.3433V19.2188H42.3433ZM42.3433 26.5938V25.5938H31.2496V26.5938V27.5938H42.3433V26.5938ZM31.2496 26.5938H30.2496V39.25H31.2496H32.2496V26.5938H31.2496ZM31.2496 39.25V40.25H43.2183V39.25V38.25H31.2496V39.25ZM43.2183 39.25H42.2183V46.6875H43.2183H44.2183V39.25H43.2183ZM21.5308 8.34375L20.5693 8.06903L20.1318 9.60028L21.0933 9.875L22.0548 10.1497L22.4923 8.61847L21.5308 8.34375ZM21.0933 9.875L20.1353 9.58827L14.8228 27.3383L15.7808 27.625L16.7388 27.9117L22.0513 10.1617L21.0933 9.875ZM15.7808 27.625V28.625H22.7496V27.625V26.625H15.7808V27.625ZM22.7496 27.625H23.7496V8.34375H22.7496H21.7496V27.625H22.7496ZM22.7496 8.34375V7.34375H21.5308V8.34375V9.34375H22.7496V8.34375ZM72.5308 25.8125L71.7834 25.1481L71.7827 25.1489L72.5308 25.8125ZM67.4996 28.3125L67.3322 27.3266L66.4996 27.468V28.3125H67.4996ZM67.4996 28.5625H66.4996V29.4425L67.3724 29.5544L67.4996 28.5625ZM73.2183 31.0938L72.5112 31.8009L72.5166 31.8062L72.522 31.8115L73.2183 31.0938ZM49.4683 46.6875H48.4683V47.6875H49.4683V46.6875ZM49.4683 11.875V10.875H48.4683V11.875H49.4683ZM57.7808 31.7188V30.7188H56.7808V31.7188H57.7808ZM57.7808 40.4688H56.7808V41.4688H57.7808V40.4688ZM57.7808 18.2188V17.2188H56.7808V18.2188H57.7808ZM57.7808 25.5625H56.7808V26.5625H57.7808V25.5625ZM64.4058 24.6875L64.9427 25.5312L64.9495 25.5269L64.9561 25.5225L64.4058 24.6875ZM74.2808 20.9062H73.2808C73.2808 22.65 72.7683 24.0402 71.7834 25.1481L72.5308 25.8125L73.2782 26.4769C74.6267 24.9598 75.2808 23.0792 75.2808 20.9062H74.2808ZM72.5308 25.8125L71.7827 25.1489C70.828 26.2251 69.3834 26.9783 67.3322 27.3266L67.4996 28.3125L67.667 29.2984C70.0324 28.8967 71.9419 27.9832 73.2789 26.4761L72.5308 25.8125ZM67.4996 28.3125H66.4996V28.5625H67.4996H68.4996V28.3125H67.4996ZM67.4996 28.5625L67.3724 29.5544C69.6492 29.8463 71.33 30.6196 72.5112 31.8009L73.2183 31.0938L73.9254 30.3866C72.3567 28.8179 70.225 27.9037 67.6267 27.5706L67.4996 28.5625ZM73.2183 31.0938L72.522 31.8115C73.7006 32.9549 74.3121 34.4449 74.3121 36.375H75.3121H76.3121C76.3121 33.9718 75.5277 31.9409 73.9146 30.376L73.2183 31.0938ZM75.3121 36.375H74.3121C74.3121 39.4414 73.2472 41.6769 71.1797 43.2321L71.7808 44.0312L72.382 44.8304C75.0228 42.8439 76.3121 39.9753 76.3121 36.375H75.3121ZM71.7808 44.0312L71.1797 43.2321C69.0648 44.8229 65.9456 45.6875 61.6871 45.6875V46.6875V47.6875C66.1785 47.6875 69.7885 46.7812 72.382 44.8304L71.7808 44.0312ZM61.6871 46.6875V45.6875H49.4683V46.6875V47.6875H61.6871V46.6875ZM49.4683 46.6875H50.4683V11.875H49.4683H48.4683V46.6875H49.4683ZM49.4683 11.875V12.875H61.6246V11.875V10.875H49.4683V11.875ZM61.6246 11.875V12.875C65.7546 12.875 68.6726 13.6172 70.5359 14.9468C72.337 16.2321 73.2808 18.1591 73.2808 20.9062H74.2808H75.2808C75.2808 17.6326 74.1152 15.044 71.6976 13.3188C69.3421 11.638 65.932 10.875 61.6246 10.875V11.875ZM66.6871 35.875H67.6871C67.6871 34.1677 67.1192 32.7416 65.8084 31.8582L65.2496 32.6875L64.6907 33.5168C65.2966 33.9251 65.6871 34.6239 65.6871 35.875H66.6871ZM65.2496 32.6875L65.8084 31.8582C64.6072 31.0487 62.9216 30.7188 60.9058 30.7188V31.7188V32.7188C62.7651 32.7188 63.9753 33.0346 64.6907 33.5168L65.2496 32.6875ZM60.9058 31.7188V30.7188H57.7808V31.7188V32.7188H60.9058V31.7188ZM57.7808 31.7188H56.7808V40.4688H57.7808H58.7808V31.7188H57.7808ZM57.7808 40.4688V41.4688H61.0308V40.4688V39.4688H57.7808V40.4688ZM61.0308 40.4688V41.4688C63.0258 41.4688 64.7075 41.0679 65.9034 40.0966C67.1392 39.0929 67.6871 37.6218 67.6871 35.875H66.6871H65.6871C65.6871 37.1907 65.2922 38.0164 64.6426 38.5441C63.9531 39.104 62.8067 39.4688 61.0308 39.4688V40.4688ZM65.7808 21.6562H66.7808C66.7808 20.2681 66.3054 19.0806 65.2419 18.2794C64.2319 17.5184 62.836 17.2188 61.2183 17.2188V18.2188V19.2188C62.6423 19.2188 63.5277 19.492 64.0384 19.8768C64.4959 20.2214 64.7808 20.7527 64.7808 21.6562H65.7808ZM61.2183 18.2188V17.2188H57.7808V18.2188V19.2188H61.2183V18.2188ZM57.7808 18.2188H56.7808V25.5625H57.7808H58.7808V18.2188H57.7808ZM57.7808 25.5625V26.5625H60.2808V25.5625V24.5625H57.7808V25.5625ZM60.2808 25.5625V26.5625C62.188 26.5625 63.7897 26.2649 64.9427 25.5312L64.4058 24.6875L63.8689 23.8438C63.1886 24.2768 62.0403 24.5625 60.2808 24.5625V25.5625ZM64.4058 24.6875L64.9561 25.5225C66.2342 24.6801 66.7808 23.2994 66.7808 21.6562H65.7808H64.7808C64.7808 22.8464 64.4108 23.4866 63.8555 23.8525L64.4058 24.6875ZM91.7808 24.5312L91.2391 23.6906L91.2305 23.6963L91.7808 24.5312ZM85.2808 18.3125L85.5908 19.2632L85.6001 19.2602L85.6093 19.257L85.2808 18.3125ZM82.1871 19.8125L81.2917 20.2579L81.7817 21.2429L82.7156 20.6614L82.1871 19.8125ZM79.1871 13.7812L78.679 12.92L77.8771 13.393L78.2917 14.2266L79.1871 13.7812ZM97.6558 13.6875L97.0546 14.4866L97.6558 13.6875ZM94.3433 28.25L94.074 27.2869L93.3433 27.4913V28.25H94.3433ZM94.3433 28.5H93.3433V29.294L94.1166 29.474L94.3433 28.5ZM98.2496 44.6562L98.8541 45.4528L98.8552 45.452L98.2496 44.6562ZM83.0308 46.6875L82.7855 47.657L82.7992 47.6603L83.0308 46.6875ZM78.6558 45.0312H77.6558V45.6167L78.1663 45.9032L78.6558 45.0312ZM78.6558 38.0625L79.1404 37.1877L77.6558 36.3654V38.0625H78.6558ZM92.0621 32.8438L91.3999 33.5931L91.4091 33.6012L91.4185 33.6091L92.0621 32.8438ZM84.1558 31.6562H83.1558V32.6562H84.1558V31.6562ZM84.1558 25.4375V24.4375H83.1558V25.4375H84.1558ZM87.5621 25.4375V26.4375C89.5279 26.4375 91.1708 26.131 92.3311 25.3662L91.7808 24.5312L91.2305 23.6963C90.5575 24.1399 89.388 24.4375 87.5621 24.4375V25.4375ZM91.7808 24.5312L92.3225 25.3718C93.6362 24.5252 94.1871 23.1014 94.1871 21.4062H93.1871H92.1871C92.1871 22.6694 91.8004 23.3289 91.2391 23.6907L91.7808 24.5312ZM93.1871 21.4062H94.1871C94.1871 19.9652 93.6927 18.7385 92.5926 17.9116C91.5462 17.1251 90.0961 16.8125 88.4058 16.8125V17.8125V18.8125C89.9031 18.8125 90.8436 19.0989 91.3909 19.5103C91.8845 19.8813 92.1871 20.4515 92.1871 21.4062H93.1871ZM88.4058 17.8125V16.8125C87.1811 16.8125 86.0271 16.9942 84.9523 17.368L85.2808 18.3125L85.6093 19.257C86.4512 18.9642 87.3806 18.8125 88.4058 18.8125V17.8125ZM85.2808 18.3125L84.9708 17.3618C83.9174 17.7053 82.8125 18.2451 81.6585 18.9636L82.1871 19.8125L82.7156 20.6614C83.77 20.0049 84.7276 19.5447 85.5908 19.2632L85.2808 18.3125ZM82.1871 19.8125L83.0824 19.3671L80.0824 13.3359L79.1871 13.7812L78.2917 14.2266L81.2917 20.2579L82.1871 19.8125ZM79.1871 13.7812L79.6952 14.6425C82.4287 13.0299 85.4704 12.2188 88.8433 12.2188V11.2188V10.2188C85.1329 10.2188 81.7371 11.1159 78.679 12.92L79.1871 13.7812ZM88.8433 11.2188V12.2188C92.3884 12.2188 95.0918 13.0098 97.0546 14.4866L97.6558 13.6875L98.257 12.8884C95.8449 11.0736 92.6732 10.2188 88.8433 10.2188V11.2188ZM97.6558 13.6875L97.0546 14.4866C98.9787 15.9343 99.9371 17.8819 99.9371 20.4375H100.937H101.937C101.937 17.2848 100.708 14.7324 98.257 12.8884L97.6558 13.6875ZM100.937 20.4375H99.9371C99.9371 22.2327 99.4462 23.6378 98.5244 24.73C97.5921 25.8347 96.1431 26.7084 94.074 27.2869L94.3433 28.25L94.6126 29.2131C96.9394 28.5624 98.7873 27.5194 100.053 26.02C101.329 24.508 101.937 22.6215 101.937 20.4375H100.937ZM94.3433 28.25H93.3433V28.5H94.3433H95.3433V28.25H94.3433ZM94.3433 28.5L94.1166 29.474C96.3794 30.0007 98.0125 30.9428 99.1116 32.2402L99.8746 31.5938L100.638 30.9473C99.195 29.2447 97.1405 28.1243 94.57 27.526L94.3433 28.5ZM99.8746 31.5938L99.1116 32.2402C100.202 33.5271 100.781 35.2008 100.781 37.3438H101.781H102.781C102.781 34.8201 102.089 32.6604 100.638 30.9473L99.8746 31.5938ZM101.781 37.3438H100.781C100.781 40.1302 99.7376 42.2671 97.644 43.8605L98.2496 44.6562L98.8552 45.452C101.47 43.4621 102.781 40.724 102.781 37.3438H101.781ZM98.2496 44.6562L97.645 43.8597C95.5448 45.4536 92.5466 46.3125 88.5308 46.3125V47.3125V48.3125C92.8067 48.3125 96.2877 47.4005 98.8541 45.4528L98.2496 44.6562ZM88.5308 47.3125V46.3125C86.6871 46.3125 84.9318 46.1122 83.2624 45.7147L83.0308 46.6875L82.7992 47.6603C84.6299 48.0962 86.5412 48.3125 88.5308 48.3125V47.3125ZM83.0308 46.6875L83.2761 45.718C81.6075 45.2959 80.2366 44.7719 79.1454 44.1593L78.6558 45.0312L78.1663 45.9032C79.45 46.6239 80.9958 47.2041 82.7855 47.657L83.0308 46.6875ZM78.6558 45.0312H79.6558V38.0625H78.6558H77.6558V45.0312H78.6558ZM78.6558 38.0625L78.1712 38.9373C81.2084 40.6197 84.4056 41.4688 87.7496 41.4688V40.4688V39.4688C84.7603 39.4688 81.8949 38.7136 79.1404 37.1877L78.6558 38.0625ZM87.7496 40.4688V41.4688C89.7399 41.4688 91.4143 41.1048 92.611 40.2172C93.8635 39.2881 94.4371 37.9044 94.4371 36.25H93.4371H92.4371C92.4371 37.4081 92.0627 38.1338 91.4194 38.6109C90.7202 39.1295 89.551 39.4688 87.7496 39.4688V40.4688ZM93.4371 36.25H94.4371C94.4371 34.5357 93.9037 33.0858 92.7057 32.0784L92.0621 32.8438L91.4185 33.6091C92.0538 34.1434 92.4371 34.9643 92.4371 36.25H93.4371ZM92.0621 32.8438L92.7243 32.0944C91.5501 31.0568 89.742 30.6562 87.5621 30.6562V31.6562V32.6562C89.5904 32.6562 90.7824 33.0474 91.3999 33.5931L92.0621 32.8438ZM87.5621 31.6562V30.6562H84.1558V31.6562V32.6562H87.5621V31.6562ZM84.1558 31.6562H85.1558V25.4375H84.1558H83.1558V31.6562H84.1558ZM84.1558 25.4375V26.4375H87.5621V25.4375V24.4375H84.1558V25.4375ZM124.531 46.6875L123.587 47.0167L123.82 47.6875H124.531V46.6875ZM122.875 41.9375L123.819 41.6083L123.585 40.9375H122.875V41.9375ZM122.687 41.9375V40.9375H122.122L121.83 41.4217L122.687 41.9375ZM107.843 44.4375L107.047 45.043L107.052 45.0485L107.843 44.4375ZM108.656 28.2812L109.319 29.0299L109.319 29.0295L108.656 28.2812ZM117.687 25.3125L117.647 24.3133L117.64 24.3136L117.687 25.3125ZM122.312 25.125L122.353 26.1242L123.312 26.0853V25.125H122.312ZM110.906 20.1875L110.011 20.6347L110.494 21.6006L111.42 21.045L110.906 20.1875ZM108.031 14.4375L107.496 13.5924L106.732 14.0758L107.136 14.8847L108.031 14.4375ZM127.718 14.3438L126.976 15.0136L126.983 15.0211L127.718 14.3438ZM130.625 46.6875V47.6875H131.625V46.6875H130.625ZM120.937 38.7812L120.105 38.2265L120.103 38.2295L120.937 38.7812ZM122.312 30.375H123.312V29.325L122.263 29.3762L122.312 30.375ZM119.75 30.5L119.701 29.5012L119.695 29.5015L119.75 30.5ZM115.562 32.125L114.824 31.4499L114.816 31.4587L115.562 32.125ZM124.531 46.6875L125.475 46.3583L123.819 41.6083L122.875 41.9375L121.93 42.2667L123.587 47.0167L124.531 46.6875ZM122.875 41.9375V40.9375H122.687V41.9375V42.9375H122.875V41.9375ZM122.687 41.9375L121.83 41.4217C120.643 43.3937 119.478 44.6423 118.368 45.294L118.875 46.1562L119.381 47.0185C120.896 46.1285 122.273 44.5646 123.544 42.4533L122.687 41.9375ZM118.875 46.1562L118.368 45.294C117.25 45.9506 115.782 46.3125 113.906 46.3125V47.3125V48.3125C116.029 48.3125 117.874 47.9036 119.381 47.0185L118.875 46.1562ZM113.906 47.3125V46.3125C111.632 46.3125 109.912 45.4817 108.635 43.8265L107.843 44.4375L107.052 45.0485C108.733 47.2266 111.054 48.3125 113.906 48.3125V47.3125ZM107.843 44.4375L108.639 43.832C107.359 42.149 106.656 39.7245 106.656 36.4375H105.656H104.656C104.656 39.9838 105.411 42.8927 107.047 45.043L107.843 44.4375ZM105.656 36.4375H106.656C106.656 32.9459 107.604 30.548 109.319 29.0299L108.656 28.2812L107.993 27.5326C105.707 29.5562 104.656 32.5957 104.656 36.4375H105.656ZM108.656 28.2812L109.319 29.0295C111.104 27.4473 113.856 26.4932 117.734 26.3114L117.687 25.3125L117.64 24.3136C113.518 24.5068 110.25 25.5318 107.992 27.533L108.656 28.2812ZM117.687 25.3125L117.728 26.3117L122.353 26.1242L122.312 25.125L122.272 24.1258L117.647 24.3133L117.687 25.3125ZM122.312 25.125H123.312V22.625H122.312H121.312V25.125H122.312ZM122.312 22.625H123.312C123.312 20.8784 122.937 19.3818 122.014 18.3144C121.066 17.2193 119.694 16.75 118.093 16.75V17.75V18.75C119.305 18.75 120.043 19.0932 120.501 19.6231C120.984 20.1807 121.312 21.1216 121.312 22.625H122.312ZM118.093 17.75V16.75C115.758 16.75 113.181 17.6563 110.391 19.33L110.906 20.1875L111.42 21.045C114.047 19.4687 116.262 18.75 118.093 18.75V17.75ZM110.906 20.1875L111.8 19.7403L108.925 13.9903L108.031 14.4375L107.136 14.8847L110.011 20.6347L110.906 20.1875ZM108.031 14.4375L108.565 15.2826C111.865 13.1955 115.44 12.1562 119.312 12.1562V11.1562V10.1562C115.059 10.1562 111.113 11.3045 107.496 13.5924L108.031 14.4375ZM119.312 11.1562V12.1562C122.803 12.1562 125.3 13.1556 126.976 15.0135L127.718 14.3438L128.461 13.674C126.303 11.2819 123.196 10.1562 119.312 10.1562V11.1562ZM127.718 14.3438L126.983 15.0211C128.698 16.8835 129.625 19.5981 129.625 23.3125H130.625H131.625C131.625 19.2769 130.614 16.0123 128.454 13.6664L127.718 14.3438ZM130.625 23.3125H129.625V46.6875H130.625H131.625V23.3125H130.625ZM130.625 46.6875V45.6875H124.531V46.6875V47.6875H130.625V46.6875ZM117.312 40.8125V41.8125C119.195 41.8125 120.705 40.9445 121.771 39.333L120.937 38.7812L120.103 38.2295C119.377 39.3263 118.471 39.8125 117.312 39.8125V40.8125ZM120.937 38.7812L121.769 39.336C122.829 37.7458 123.312 35.7091 123.312 33.3125H122.312H121.312C121.312 35.4575 120.878 37.0667 120.105 38.2265L120.937 38.7812ZM122.312 33.3125H123.312V30.375H122.312H121.312V33.3125H122.312ZM122.312 30.375L122.263 29.3762L119.701 29.5012L119.75 30.5L119.798 31.4988L122.361 31.3738L122.312 30.375ZM119.75 30.5L119.695 29.5015C117.651 29.6138 115.961 30.208 114.824 31.45L115.562 32.125L116.3 32.8C116.955 32.0837 118.057 31.5945 119.804 31.4985L119.75 30.5ZM115.562 32.125L114.816 31.4587C113.715 32.6915 113.25 34.431 113.25 36.5H114.25H115.25C115.25 34.694 115.659 33.5169 116.308 32.7913L115.562 32.125ZM114.25 36.5H113.25C113.25 38.0255 113.515 39.3489 114.2 40.3134C114.929 41.3408 116.026 41.8125 117.312 41.8125V40.8125V39.8125C116.556 39.8125 116.122 39.5655 115.831 39.1554C115.495 38.6824 115.25 37.8495 115.25 36.5H114.25ZM155.437 11.875H156.437V10.875H155.437V11.875ZM155.437 18.5938V19.5938H156.437V18.5938H155.437ZM145.656 18.5938V17.5938H144.656V18.5938H145.656ZM145.656 46.6875V47.6875H146.656V46.6875H145.656ZM137.343 46.6875H136.343V47.6875H137.343V46.6875ZM137.343 11.875V10.875H136.343V11.875H137.343ZM155.437 11.875H154.437V18.5938H155.437H156.437V11.875H155.437ZM155.437 18.5938V17.5938H145.656V18.5938V19.5938H155.437V18.5938ZM145.656 18.5938H144.656V46.6875H145.656H146.656V18.5938H145.656ZM145.656 46.6875V45.6875H137.343V46.6875V47.6875H145.656V46.6875ZM137.343 46.6875H138.343V11.875H137.343H136.343V46.6875H137.343ZM137.343 11.875V12.875H155.437V11.875V10.875H137.343V11.875Z" fill="#FFCB3D"/>
<defs>
<filter id="filter0_i_3_61" x="0" y="-6" width="156.437" height="54.3125" filterUnits="userSpaceOnUse" color-interpolation-filters="sRGB">
<feFlood flood-opacity="0" result="BackgroundImageFix"/>
<feBlend mode="normal" in="SourceGraphic" in2="BackgroundImageFix" result="shape"/>
<feColorMatrix in="SourceAlpha" type="matrix" values="0 0 0 0 0 0 0 0 0 0 0 0 0 0 0 0 0 0 127 0" result="hardAlpha"/>
<feOffset dy="-6"/>
<feGaussianBlur stdDeviation="3.65"/>
<feComposite in2="hardAlpha" operator="arithmetic" k2="-1" k3="1"/>
<feColorMatrix type="matrix" values="0 0 0 0 0.134615 0 0 0 0 0.134615 0 0 0 0 0.134615 0 0 0 0.25 0"/>
<feBlend mode="normal" in2="shape" result="effect1_innerShadow_3_61"/>
</filter>
</defs>
</svg>
