<svg width="253" height="57" viewBox="0 0 253 57" fill="none" xmlns="http://www.w3.org/2000/svg">
<mask id="path-1-outside-1_3_61" maskUnits="userSpaceOnUse" x="-0.982178" y="-0.3125" width="254" height="57" fill="black">
<rect fill="white" x="-0.982178" y="-0.3125" width="254" height="57"/>
<path d="M48.7166 50.6875H28.2478V39.1562H18.9041L15.3728 50.6875H6.87282L21.6541 5H48.7166V12.3438H36.7478V23.2188H47.8416V30.5938H36.7478V43.25H48.7166V50.6875ZM27.0291 12.3438L26.5916 13.875L21.2791 31.625H28.2478V12.3438H27.0291ZM101.539 24.9062C101.539 26.8646 100.956 28.5 99.7891 29.8125C98.6432 31.1042 96.9662 31.9375 94.7578 32.3125V32.5625C97.1953 32.875 99.1016 33.7188 100.477 35.0938C101.872 36.4479 102.57 38.2083 102.57 40.375C102.57 43.7083 101.393 46.2604 99.0391 48.0312C96.6849 49.8021 93.3203 50.6875 88.9453 50.6875H76.7266V15.875H88.8828C97.3203 15.875 101.539 18.8854 101.539 24.9062ZM93.9453 39.875C93.9453 38.3958 93.4662 37.3333 92.5078 36.6875C91.5495 36.0417 90.1016 35.7188 88.1641 35.7188H85.0391V44.4688H88.2891C92.0599 44.4688 93.9453 42.9375 93.9453 39.875ZM93.0391 25.6562C93.0391 23.3646 91.5182 22.2188 88.4766 22.2188H85.0391V29.5625H87.5391C89.3724 29.5625 90.7474 29.2708 91.6641 28.6875C92.5807 28.0833 93.0391 27.0729 93.0391 25.6562ZM136.58 29.4375C138.476 29.4375 139.882 29.1354 140.799 28.5312C141.737 27.9271 142.205 26.8854 142.205 25.4062C142.205 23.0104 140.612 21.8125 137.424 21.8125C136.299 21.8125 135.257 21.9792 134.299 22.3125C133.341 22.625 132.309 23.125 131.205 23.8125L128.205 17.7812C131.101 16.0729 134.32 15.2188 137.862 15.2188C141.549 15.2188 144.487 16.0417 146.674 17.6875C148.862 19.3333 149.955 21.5833 149.955 24.4375C149.955 28.4167 147.757 31.0208 143.362 32.25V32.5C145.778 33.0625 147.622 34.0938 148.893 35.5938C150.164 37.0938 150.799 39.0104 150.799 41.3438C150.799 44.4271 149.622 46.8646 147.268 48.6562C144.934 50.4271 141.695 51.3125 137.549 51.3125C135.632 51.3125 133.799 51.1042 132.049 50.6875C130.32 50.25 128.862 49.6979 127.674 49.0312V42.0625C130.57 43.6667 133.601 44.4688 136.768 44.4688C140.559 44.4688 142.455 43.0625 142.455 40.25C142.455 38.75 141.997 37.6146 141.08 36.8438C140.184 36.0521 138.684 35.6562 136.58 35.6562H133.174V29.4375H136.58ZM195.309 50.6875L193.653 45.9375H193.465C192.236 47.9792 190.965 49.3854 189.653 50.1562C188.34 50.9271 186.684 51.3125 184.684 51.3125C182.122 51.3125 180.101 50.3542 178.622 48.4375C177.163 46.5208 176.434 43.8542 176.434 40.4375C176.434 36.7708 177.434 34.0521 179.434 32.2812C181.455 30.4896 184.465 29.5 188.465 29.3125L193.09 29.125V26.625C193.09 23.375 191.684 21.75 188.872 21.75C186.788 21.75 184.392 22.5625 181.684 24.1875L178.809 18.4375C182.267 16.25 186.028 15.1562 190.09 15.1562C193.778 15.1562 196.58 16.2188 198.497 18.3438C200.434 20.4479 201.403 23.4375 201.403 27.3125V50.6875H195.309ZM188.09 44.8125C189.611 44.8125 190.819 44.1354 191.715 42.7812C192.632 41.4062 193.09 39.5833 193.09 37.3125V34.375L190.528 34.5C188.632 34.6042 187.236 35.1458 186.34 36.125C185.465 37.1042 185.028 38.5625 185.028 40.5C185.028 43.375 186.049 44.8125 188.09 44.8125ZM247.975 15.875V22.5938H238.194V50.6875H229.882V15.875H247.975Z"/>
</mask>
<path d="M48.7166 50.6875H28.2478V39.1562H18.9041L15.3728 50.6875H6.87282L21.6541 5H48.7166V12.3438H36.7478V23.2188H47.8416V30.5938H36.7478V43.25H48.7166V50.6875ZM27.0291 12.3438L26.5916 13.875L21.2791 31.625H28.2478V12.3438H27.0291ZM101.539 24.9062C101.539 26.8646 100.956 28.5 99.7891 29.8125C98.6432 31.1042 96.9662 31.9375 94.7578 32.3125V32.5625C97.1953 32.875 99.1016 33.7188 100.477 35.0938C101.872 36.4479 102.57 38.2083 102.57 40.375C102.57 43.7083 101.393 46.2604 99.0391 48.0312C96.6849 49.8021 93.3203 50.6875 88.9453 50.6875H76.7266V15.875H88.8828C97.3203 15.875 101.539 18.8854 101.539 24.9062ZM93.9453 39.875C93.9453 38.3958 93.4662 37.3333 92.5078 36.6875C91.5495 36.0417 90.1016 35.7188 88.1641 35.7188H85.0391V44.4688H88.2891C92.0599 44.4688 93.9453 42.9375 93.9453 39.875ZM93.0391 25.6562C93.0391 23.3646 91.5182 22.2188 88.4766 22.2188H85.0391V29.5625H87.5391C89.3724 29.5625 90.7474 29.2708 91.6641 28.6875C92.5807 28.0833 93.0391 27.0729 93.0391 25.6562ZM136.58 29.4375C138.476 29.4375 139.882 29.1354 140.799 28.5312C141.737 27.9271 142.205 26.8854 142.205 25.4062C142.205 23.0104 140.612 21.8125 137.424 21.8125C136.299 21.8125 135.257 21.9792 134.299 22.3125C133.341 22.625 132.309 23.125 131.205 23.8125L128.205 17.7812C131.101 16.0729 134.32 15.2188 137.862 15.2188C141.549 15.2188 144.487 16.0417 146.674 17.6875C148.862 19.3333 149.955 21.5833 149.955 24.4375C149.955 28.4167 147.757 31.0208 143.362 32.25V32.5C145.778 33.0625 147.622 34.0938 148.893 35.5938C150.164 37.0938 150.799 39.0104 150.799 41.3438C150.799 44.4271 149.622 46.8646 147.268 48.6562C144.934 50.4271 141.695 51.3125 137.549 51.3125C135.632 51.3125 133.799 51.1042 132.049 50.6875C130.32 50.25 128.862 49.6979 127.674 49.0312V42.0625C130.57 43.6667 133.601 44.4688 136.768 44.4688C140.559 44.4688 142.455 43.0625 142.455 40.25C142.455 38.75 141.997 37.6146 141.08 36.8438C140.184 36.0521 138.684 35.6562 136.58 35.6562H133.174V29.4375H136.58ZM195.309 50.6875L193.653 45.9375H193.465C192.236 47.9792 190.965 49.3854 189.653 50.1562C188.34 50.9271 186.684 51.3125 184.684 51.3125C182.122 51.3125 180.101 50.3542 178.622 48.4375C177.163 46.5208 176.434 43.8542 176.434 40.4375C176.434 36.7708 177.434 34.0521 179.434 32.2812C181.455 30.4896 184.465 29.5 188.465 29.3125L193.09 29.125V26.625C193.09 23.375 191.684 21.75 188.872 21.75C186.788 21.75 184.392 22.5625 181.684 24.1875L178.809 18.4375C182.267 16.25 186.028 15.1562 190.09 15.1562C193.778 15.1562 196.58 16.2188 198.497 18.3438C200.434 20.4479 201.403 23.4375 201.403 27.3125V50.6875H195.309ZM188.09 44.8125C189.611 44.8125 190.819 44.1354 191.715 42.7812C192.632 41.4062 193.09 39.5833 193.09 37.3125V34.375L190.528 34.5C188.632 34.6042 187.236 35.1458 186.34 36.125C185.465 37.1042 185.028 38.5625 185.028 40.5C185.028 43.375 186.049 44.8125 188.09 44.8125ZM247.975 15.875V22.5938H238.194V50.6875H229.882V15.875H247.975Z" fill="#FFFCE0"/>
<path d="M48.7166 50.6875V55.6875H53.7166V50.6875H48.7166ZM28.2478 50.6875H23.2478V55.6875H28.2478V50.6875ZM28.2478 39.1562H33.2478V34.1562H28.2478V39.1562ZM18.9041 39.1562V34.1562H15.206L14.1232 37.6922L18.9041 39.1562ZM15.3728 50.6875V55.6875H19.0708L20.1537 52.1516L15.3728 50.6875ZM6.87282 50.6875L2.1156 49.1484L3.8147e-06 55.6875H6.87282V50.6875ZM21.6541 5V0H18.0165L16.8968 3.4609L21.6541 5ZM48.7166 5H53.7166V0H48.7166V5ZM48.7166 12.3438V17.3438H53.7166V12.3438H48.7166ZM36.7478 12.3438V7.34375H31.7478V12.3438H36.7478ZM36.7478 23.2188H31.7478V28.2188H36.7478V23.2188ZM47.8416 23.2188H52.8416V18.2188H47.8416V23.2188ZM47.8416 30.5938V35.5938H52.8416V30.5938H47.8416ZM36.7478 30.5938V25.5938H31.7478V30.5938H36.7478ZM36.7478 43.25H31.7478V48.25H36.7478V43.25ZM48.7166 43.25H53.7166V38.25H48.7166V43.25ZM27.0291 12.3438V7.34375H23.2576L22.2214 10.9701L27.0291 12.3438ZM26.5916 13.875L31.3816 15.3086L31.3906 15.2787L31.3992 15.2486L26.5916 13.875ZM21.2791 31.625L16.489 30.1914L14.5634 36.625H21.2791V31.625ZM28.2478 31.625V36.625H33.2478V31.625H28.2478ZM28.2478 12.3438H33.2478V7.34375H28.2478V12.3438ZM48.7166 50.6875V45.6875H28.2478V50.6875V55.6875H48.7166V50.6875ZM28.2478 50.6875H33.2478V39.1562H28.2478H23.2478V50.6875H28.2478ZM28.2478 39.1562V34.1562H18.9041V39.1562V44.1562H28.2478V39.1562ZM18.9041 39.1562L14.1232 37.6922L10.592 49.2234L15.3728 50.6875L20.1537 52.1516L23.6849 40.6203L18.9041 39.1562ZM15.3728 50.6875V45.6875H6.87282V50.6875V55.6875H15.3728V50.6875ZM6.87282 50.6875L11.63 52.2266L26.4113 6.5391L21.6541 5L16.8968 3.4609L2.1156 49.1484L6.87282 50.6875ZM21.6541 5V10H48.7166V5V0H21.6541V5ZM48.7166 5H43.7166V12.3438H48.7166H53.7166V5H48.7166ZM48.7166 12.3438V7.34375H36.7478V12.3438V17.3438H48.7166V12.3438ZM36.7478 12.3438H31.7478V23.2188H36.7478H41.7478V12.3438H36.7478ZM36.7478 23.2188V28.2188H47.8416V23.2188V18.2188H36.7478V23.2188ZM47.8416 23.2188H42.8416V30.5938H47.8416H52.8416V23.2188H47.8416ZM47.8416 30.5938V25.5938H36.7478V30.5938V35.5938H47.8416V30.5938ZM36.7478 30.5938H31.7478V43.25H36.7478H41.7478V30.5938H36.7478ZM36.7478 43.25V48.25H48.7166V43.25V38.25H36.7478V43.25ZM48.7166 43.25H43.7166V50.6875H48.7166H53.7166V43.25H48.7166ZM27.0291 12.3438L22.2214 10.9701L21.7839 12.5014L26.5916 13.875L31.3992 15.2486L31.8367 13.7174L27.0291 12.3438ZM26.5916 13.875L21.8015 12.4414L16.489 30.1914L21.2791 31.625L26.0691 33.0586L31.3816 15.3086L26.5916 13.875ZM21.2791 31.625V36.625H28.2478V31.625V26.625H21.2791V31.625ZM28.2478 31.625H33.2478V12.3438H28.2478H23.2478V31.625H28.2478ZM28.2478 12.3438V7.34375H27.0291V12.3438V17.3438H28.2478V12.3438ZM99.7891 29.8125L96.052 26.4907L96.0487 26.4944L99.7891 29.8125ZM94.7578 32.3125L93.9207 27.3831L89.7578 28.09V32.3125H94.7578ZM94.7578 32.5625H89.7578V36.9624L94.122 37.5219L94.7578 32.5625ZM100.477 35.0938L96.941 38.6293L96.9678 38.6561L96.995 38.6824L100.477 35.0938ZM76.7266 50.6875H71.7266V55.6875H76.7266V50.6875ZM76.7266 15.875V10.875H71.7266V15.875H76.7266ZM85.0391 35.7188V30.7188H80.0391V35.7188H85.0391ZM85.0391 44.4688H80.0391V49.4688H85.0391V44.4688ZM85.0391 22.2188V17.2188H80.0391V22.2188H85.0391ZM85.0391 29.5625H80.0391V34.5625H85.0391V29.5625ZM91.6641 28.6875L94.3484 32.9058L94.3822 32.8843L94.4156 32.8623L91.6641 28.6875ZM101.539 24.9062H96.5391C96.5391 25.7917 96.3097 26.2008 96.052 26.4907L99.7891 29.8125L103.526 33.1343C105.602 30.7992 106.539 27.9375 106.539 24.9062H101.539ZM99.7891 29.8125L96.0487 26.4944C95.8584 26.7089 95.3436 27.1415 93.9207 27.3831L94.7578 32.3125L95.5949 37.2419C98.5887 36.7336 101.428 35.4994 103.529 33.1306L99.7891 29.8125ZM94.7578 32.3125H89.7578V32.5625H94.7578H99.7578V32.3125H94.7578ZM94.7578 32.5625L94.122 37.5219C95.7559 37.7314 96.5349 38.2231 96.941 38.6293L100.477 35.0938L104.012 31.5582C101.668 29.2144 98.6348 28.0186 95.3936 27.6031L94.7578 32.5625ZM100.477 35.0938L96.995 38.6824C97.3048 38.983 97.5703 39.391 97.5703 40.375H102.57H107.57C107.57 37.0257 106.44 33.9129 103.958 31.5051L100.477 35.0938ZM102.57 40.375H97.5703C97.5703 42.3735 96.9542 43.3429 96.0334 44.0355L99.0391 48.0312L102.045 52.027C105.832 49.178 107.57 45.0432 107.57 40.375H102.57ZM99.0391 48.0312L96.0334 44.0355C94.8757 44.9063 92.7382 45.6875 88.9453 45.6875V50.6875V55.6875C93.9025 55.6875 98.4941 54.6978 102.045 52.027L99.0391 48.0312ZM88.9453 50.6875V45.6875H76.7266V50.6875V55.6875H88.9453V50.6875ZM76.7266 50.6875H81.7266V15.875H76.7266H71.7266V50.6875H76.7266ZM76.7266 15.875V20.875H88.8828V15.875V10.875H76.7266V15.875ZM88.8828 15.875V20.875C92.6581 20.875 94.5919 21.5757 95.4707 22.2028C96.0388 22.6082 96.5391 23.212 96.5391 24.9062H101.539H106.539C106.539 20.5797 104.93 16.6678 101.279 14.0628C97.9394 11.6795 93.5451 10.875 88.8828 10.875V15.875ZM93.9453 39.875H98.9453C98.9453 37.2553 98.0226 34.3745 95.3021 32.5412L92.5078 36.6875L89.7136 40.8338C89.5816 40.7449 89.4408 40.6235 89.311 40.4692C89.1813 40.3152 89.0891 40.1599 89.028 40.0243C88.909 39.7604 88.9453 39.66 88.9453 39.875H93.9453ZM92.5078 36.6875L95.3021 32.5412C93.1292 31.0768 90.4928 30.7188 88.1641 30.7188V35.7188V40.7188C88.8713 40.7188 89.3375 40.7792 89.6148 40.841C89.8943 40.9034 89.8761 40.9434 89.7136 40.8338L92.5078 36.6875ZM88.1641 35.7188V30.7188H85.0391V35.7188V40.7188H88.1641V35.7188ZM85.0391 35.7188H80.0391V44.4688H85.0391H90.0391V35.7188H85.0391ZM85.0391 44.4688V49.4688H88.2891V44.4688V39.4688H85.0391V44.4688ZM88.2891 44.4688V49.4688C90.7221 49.4688 93.4744 48.9956 95.6834 47.2015C98.0914 45.2459 98.9453 42.4839 98.9453 39.875H93.9453H88.9453C88.9453 40.1368 88.9043 40.1373 88.9662 39.9863C88.998 39.9089 89.05 39.8094 89.1283 39.7033C89.207 39.5968 89.2946 39.5077 89.3791 39.4391C89.5501 39.3002 89.6261 39.3096 89.4571 39.3554C89.2775 39.404 88.9097 39.4688 88.2891 39.4688V44.4688ZM93.0391 25.6562H98.0391C98.0391 23.299 97.1826 20.799 94.9072 19.0847C92.8985 17.5713 90.4818 17.2188 88.4766 17.2188V22.2188V27.2188C88.9393 27.2188 89.1791 27.264 89.2548 27.283C89.3249 27.3006 89.1529 27.2699 88.8897 27.0716C88.5986 26.8523 88.3409 26.5356 88.1814 26.1753C88.0349 25.8442 88.0391 25.6308 88.0391 25.6562H93.0391ZM88.4766 22.2188V17.2188H85.0391V22.2188V27.2188H88.4766V22.2188ZM85.0391 22.2188H80.0391V29.5625H85.0391H90.0391V22.2188H85.0391ZM85.0391 29.5625V34.5625H87.5391V29.5625V24.5625H85.0391V29.5625ZM87.5391 29.5625V34.5625C89.7417 34.5625 92.25 34.2412 94.3484 32.9058L91.6641 28.6875L88.9797 24.4692C89.1495 24.3612 89.1737 24.3962 88.9078 24.4526C88.6462 24.5081 88.206 24.5625 87.5391 24.5625V29.5625ZM91.6641 28.6875L94.4156 32.8623C97.1394 31.0671 98.0391 28.2055 98.0391 25.6562H93.0391H88.0391C88.0391 25.8423 88.0072 25.708 88.1419 25.4111C88.298 25.067 88.5745 24.7355 88.9125 24.5127L91.6641 28.6875ZM140.799 28.5312L138.091 24.3284L138.069 24.3423L138.048 24.3565L140.799 28.5312ZM134.299 22.3125L135.849 27.0662L135.896 27.051L135.942 27.035L134.299 22.3125ZM131.205 23.8125L126.729 26.0393L129.178 30.9645L133.848 28.057L131.205 23.8125ZM128.205 17.7812L125.665 13.4748L121.655 15.8401L123.729 20.008L128.205 17.7812ZM146.674 17.6875L143.668 21.6829L146.674 17.6875ZM143.362 32.25L142.015 27.4347L138.362 28.4563V32.25H143.362ZM143.362 32.5H138.362V36.4699L142.228 37.3698L143.362 32.5ZM147.268 48.6562L150.291 52.6391L150.296 52.635L147.268 48.6562ZM132.049 50.6875L130.823 55.5348L130.857 55.5434L130.891 55.5515L132.049 50.6875ZM127.674 49.0312H122.674V51.9583L125.226 53.3912L127.674 49.0312ZM127.674 42.0625L130.097 37.6888L122.674 33.5768V42.0625H127.674ZM141.08 36.8438L137.769 40.5904L137.815 40.6311L137.862 40.6706L141.08 36.8438ZM133.174 35.6562H128.174V40.6562H133.174V35.6562ZM133.174 29.4375V24.4375H128.174V29.4375H133.174ZM136.58 29.4375V34.4375C138.826 34.4375 141.416 34.1131 143.551 32.706L140.799 28.5312L138.048 24.3565C138.24 24.2294 138.282 24.2634 138.007 24.3225C137.738 24.3803 137.28 24.4375 136.58 24.4375V29.4375ZM140.799 28.5312L143.508 32.7341C146.326 30.9178 147.205 27.9653 147.205 25.4062H142.205H137.205C137.205 25.6385 137.166 25.5297 137.294 25.2451C137.361 25.0968 137.464 24.9225 137.613 24.7481C137.763 24.5729 137.929 24.4327 138.091 24.3284L140.799 28.5312ZM142.205 25.4062H147.205C147.205 22.9925 146.327 20.4527 144.014 18.7141C141.97 17.1774 139.5 16.8125 137.424 16.8125V21.8125V26.8125C137.924 26.8125 138.197 26.8611 138.301 26.8872C138.399 26.9119 138.251 26.8919 138.006 26.7078C137.733 26.5026 137.487 26.2028 137.336 25.861C137.197 25.5482 137.205 25.3562 137.205 25.4062H142.205ZM137.424 21.8125V16.8125C135.8 16.8125 134.197 17.0541 132.656 17.59L134.299 22.3125L135.942 27.035C136.318 26.9042 136.798 26.8125 137.424 26.8125V21.8125ZM134.299 22.3125L132.749 17.5588C131.315 18.0264 129.916 18.7255 128.563 19.568L131.205 23.8125L133.848 28.057C134.703 27.5245 135.366 27.2236 135.849 27.0662L134.299 22.3125ZM131.205 23.8125L135.682 21.5857L132.682 15.5545L128.205 17.7812L123.729 20.008L126.729 26.0393L131.205 23.8125ZM128.205 17.7812L130.746 22.0877C132.83 20.858 135.164 20.2188 137.862 20.2188V15.2188V10.2188C133.476 10.2188 129.372 11.2878 125.665 13.4748L128.205 17.7812ZM137.862 15.2188V20.2188C140.837 20.2188 142.604 20.8822 143.668 21.6829L146.674 17.6875L149.68 13.6921C146.369 11.2011 142.261 10.2188 137.862 10.2188V15.2188ZM146.674 17.6875L143.668 21.6829C144.539 22.338 144.955 23.0761 144.955 24.4375H149.955H154.955C154.955 20.0906 153.184 16.3286 149.68 13.6921L146.674 17.6875ZM149.955 24.4375H144.955C144.955 25.4551 144.699 25.8975 144.486 26.1501C144.22 26.4654 143.569 27.0003 142.015 27.4347L143.362 32.25L144.708 37.0653C147.55 36.2706 150.196 34.8888 152.128 32.5999C154.113 30.2483 154.955 27.3991 154.955 24.4375H149.955ZM143.362 32.25H138.362V32.5H143.362H148.362V32.25H143.362ZM143.362 32.5L142.228 37.3698C143.875 37.7533 144.666 38.3391 145.078 38.8258L148.893 35.5938L152.708 32.3617C150.578 29.8484 147.681 28.3717 144.495 27.6302L143.362 32.5ZM148.893 35.5938L145.078 38.8258C145.446 39.2603 145.799 39.9622 145.799 41.3438H150.799H155.799C155.799 38.0586 154.881 34.9272 152.708 32.3617L148.893 35.5938ZM150.799 41.3438H145.799C145.799 42.9427 145.291 43.8771 144.24 44.6775L147.268 48.6562L150.296 52.635C153.953 49.852 155.799 45.9115 155.799 41.3438H150.799ZM147.268 48.6562L144.245 44.6734C143.077 45.5598 141.045 46.3125 137.549 46.3125V51.3125V56.3125C142.345 56.3125 146.792 55.2944 150.291 52.6391L147.268 48.6562ZM137.549 51.3125V46.3125C135.997 46.3125 134.554 46.1441 133.207 45.8235L132.049 50.6875L130.891 55.5515C133.044 56.0642 135.268 56.3125 137.549 56.3125V51.3125ZM132.049 50.6875L133.275 45.8402C131.849 45.4794 130.828 45.0679 130.122 44.6713L127.674 49.0312L125.226 53.3912C126.895 54.328 128.79 55.0206 130.823 55.5348L132.049 50.6875ZM127.674 49.0312H132.674V42.0625H127.674H122.674V49.0312H127.674ZM127.674 42.0625L125.251 46.4362C128.854 48.4318 132.714 49.4688 136.768 49.4688V44.4688V39.4688C134.488 39.4688 132.286 38.9015 130.097 37.6888L127.674 42.0625ZM136.768 44.4688V49.4688C139.136 49.4688 141.821 49.0555 144.012 47.4299C146.484 45.5968 147.455 42.8971 147.455 40.25H142.455H137.455C137.455 40.3961 137.431 40.287 137.539 40.0462C137.593 39.9265 137.669 39.7987 137.768 39.6763C137.867 39.5543 137.968 39.4624 138.055 39.3982C138.224 39.2728 138.274 39.2972 138.056 39.3512C137.833 39.4064 137.423 39.4688 136.768 39.4688V44.4688ZM142.455 40.25H147.455C147.455 37.6786 146.622 34.9706 144.298 33.0169L141.08 36.8438L137.862 40.6706C137.782 40.6034 137.7 40.5173 137.627 40.4153C137.553 40.3137 137.505 40.2188 137.475 40.1451C137.417 40.0005 137.455 40.0013 137.455 40.25H142.455ZM141.08 36.8438L144.391 33.0971C142.104 31.0756 139.064 30.6562 136.58 30.6562V35.6562V40.6562C137.344 40.6562 137.792 40.7307 138.008 40.7876C138.22 40.8438 138.053 40.8412 137.769 40.5904L141.08 36.8438ZM136.58 35.6562V30.6562H133.174V35.6562V40.6562H136.58V35.6562ZM133.174 35.6562H138.174V29.4375H133.174H128.174V35.6562H133.174ZM133.174 29.4375V34.4375H136.58V29.4375V24.4375H133.174V29.4375ZM195.309 50.6875L190.588 52.3337L191.757 55.6875H195.309V50.6875ZM193.653 45.9375L198.374 44.2913L197.205 40.9375H193.653V45.9375ZM193.465 45.9375V40.9375H190.639L189.182 43.3586L193.465 45.9375ZM178.622 48.4375L174.642 51.4651L174.653 51.4787L174.663 51.4923L178.622 48.4375ZM179.434 32.2812L182.749 36.0247L182.751 36.0226L179.434 32.2812ZM188.465 29.3125L188.263 24.3166L188.247 24.3172L188.231 24.318L188.465 29.3125ZM193.09 29.125L193.293 34.1209L198.09 33.9264V29.125H193.09ZM181.684 24.1875L177.212 26.4236L179.627 31.2529L184.257 28.475L181.684 24.1875ZM178.809 18.4375L176.136 14.2119L172.315 16.6291L174.337 20.6736L178.809 18.4375ZM198.497 18.3438L194.784 21.6926L194.801 21.7117L194.818 21.7306L198.497 18.3438ZM201.403 50.6875V55.6875H206.403V50.6875H201.403ZM191.715 42.7812L187.555 40.0078L187.55 40.0152L187.545 40.0226L191.715 42.7812ZM193.09 34.375H198.09V29.1252L192.847 29.3809L193.09 34.375ZM190.528 34.5L190.284 29.5059L190.269 29.5067L190.254 29.5075L190.528 34.5ZM186.34 36.125L182.651 32.7499L182.632 32.7715L182.612 32.7933L186.34 36.125ZM195.309 50.6875L200.03 49.0413L198.374 44.2913L193.653 45.9375L188.932 47.5837L190.588 52.3337L195.309 50.6875ZM193.653 45.9375V40.9375H193.465V45.9375V50.9375H193.653V45.9375ZM193.465 45.9375L189.182 43.3586C188.162 45.0518 187.419 45.6698 187.121 45.8448L189.653 50.1562L192.185 54.4677C194.512 53.101 196.31 50.9065 197.749 48.5164L193.465 45.9375ZM189.653 50.1562L187.121 45.8448C186.781 46.0445 186.066 46.3125 184.684 46.3125V51.3125V56.3125C187.302 56.3125 189.9 55.8096 192.185 54.4677L189.653 50.1562ZM184.684 51.3125V46.3125C183.566 46.3125 183.05 45.9918 182.58 45.3827L178.622 48.4375L174.663 51.4923C177.152 54.7165 180.677 56.3125 184.684 56.3125V51.3125ZM178.622 48.4375L182.601 45.4099C182.031 44.6616 181.434 43.2058 181.434 40.4375H176.434H171.434C171.434 44.5025 172.295 48.38 174.642 51.4651L178.622 48.4375ZM176.434 40.4375H181.434C181.434 37.6463 182.176 36.5315 182.749 36.0247L179.434 32.2812L176.12 28.5378C172.692 31.5726 171.434 35.8954 171.434 40.4375H176.434ZM179.434 32.2812L182.751 36.0226C183.591 35.2783 185.31 34.4659 188.699 34.307L188.465 29.3125L188.231 24.318C183.621 24.5341 179.319 25.7009 176.117 28.54L179.434 32.2812ZM188.465 29.3125L188.668 34.3084L193.293 34.1209L193.09 29.125L192.888 24.1291L188.263 24.3166L188.465 29.3125ZM193.09 29.125H198.09V26.625H193.09H188.09V29.125H193.09ZM193.09 26.625H198.09C198.09 24.3922 197.623 21.7842 195.816 19.6969C193.891 17.4713 191.252 16.75 188.872 16.75V21.75V26.75C189.105 26.75 189.087 26.7849 188.92 26.7205C188.833 26.6871 188.719 26.6315 188.593 26.5445C188.467 26.4569 188.352 26.353 188.255 26.2406C188.055 26.0097 188.012 25.8398 188.023 25.878C188.038 25.9312 188.09 26.1568 188.09 26.625H193.09ZM188.872 21.75V16.75C185.53 16.75 182.226 18.0313 179.112 19.9L181.684 24.1875L184.257 28.475C186.559 27.0937 188.047 26.75 188.872 26.75V21.75ZM181.684 24.1875L186.156 21.9514L183.281 16.2014L178.809 18.4375L174.337 20.6736L177.212 26.4236L181.684 24.1875ZM178.809 18.4375L181.482 22.6631C184.147 20.9776 186.981 20.1562 190.09 20.1562V15.1562V10.1562C185.074 10.1562 180.388 11.5224 176.136 14.2119L178.809 18.4375ZM190.09 15.1562V20.1562C192.797 20.1562 194.072 20.903 194.784 21.6926L198.497 18.3438L202.209 14.9949C199.088 11.5345 194.759 10.1562 190.09 10.1562V15.1562ZM198.497 18.3438L194.818 21.7306C195.643 22.6259 196.403 24.2407 196.403 27.3125H201.403H206.403C206.403 22.6343 205.225 18.2699 202.175 14.9569L198.497 18.3438ZM201.403 27.3125H196.403V50.6875H201.403H206.403V27.3125H201.403ZM201.403 50.6875V45.6875H195.309V50.6875V55.6875H201.403V50.6875ZM188.09 44.8125V49.8125C191.42 49.8125 194.138 48.1809 195.885 45.5399L191.715 42.7812L187.545 40.0226C187.461 40.1497 187.492 40.0555 187.693 39.9428C187.786 39.8905 187.883 39.8539 187.968 39.8327C188.052 39.812 188.098 39.8125 188.09 39.8125V44.8125ZM191.715 42.7812L195.876 45.5547C197.509 43.1039 198.09 40.2123 198.09 37.3125H193.09H188.09C188.09 38.9543 187.755 39.7086 187.555 40.0078L191.715 42.7812ZM193.09 37.3125H198.09V34.375H193.09H188.09V37.3125H193.09ZM193.09 34.375L192.847 29.3809L190.284 29.5059L190.528 34.5L190.771 39.4941L193.334 39.3691L193.09 34.375ZM190.528 34.5L190.254 29.5075C187.616 29.6524 184.75 30.4565 182.651 32.7499L186.34 36.125L190.029 39.5001C189.895 39.6472 189.795 39.6741 189.868 39.6457C189.964 39.6085 190.246 39.523 190.802 39.4925L190.528 34.5ZM186.34 36.125L182.612 32.7933C180.604 35.0407 180.028 37.9052 180.028 40.5H185.028H190.028C190.028 39.8922 190.098 39.5462 190.145 39.3899C190.187 39.251 190.191 39.3194 190.069 39.4567L186.34 36.125ZM185.028 40.5H180.028C180.028 42.3776 180.334 44.6819 181.717 46.6294C183.323 48.8913 185.744 49.8125 188.09 49.8125V44.8125V39.8125C188.165 39.8125 188.47 39.8266 188.875 40.0168C189.306 40.2192 189.648 40.5267 189.87 40.8394C190.07 41.1207 190.101 41.3025 190.085 41.235C190.068 41.1656 190.028 40.9389 190.028 40.5H185.028ZM247.975 15.875H252.975V10.875H247.975V15.875ZM247.975 22.5938V27.5938H252.975V22.5938H247.975ZM238.194 22.5938V17.5938H233.194V22.5938H238.194ZM238.194 50.6875V55.6875H243.194V50.6875H238.194ZM229.882 50.6875H224.882V55.6875H229.882V50.6875ZM229.882 15.875V10.875H224.882V15.875H229.882ZM247.975 15.875H242.975V22.5938H247.975H252.975V15.875H247.975ZM247.975 22.5938V17.5938H238.194V22.5938V27.5938H247.975V22.5938ZM238.194 22.5938H233.194V50.6875H238.194H243.194V22.5938H238.194ZM238.194 50.6875V45.6875H229.882V50.6875V55.6875H238.194V50.6875ZM229.882 50.6875H234.882V15.875H229.882H224.882V50.6875H229.882ZM229.882 15.875V20.875H247.975V15.875V10.875H229.882V15.875Z" fill="#FFD768" mask="url(#path-1-outside-1_3_61)"/>
</svg>
