<svg width="173" height="63" viewBox="0 0 173 63" fill="none" xmlns="http://www.w3.org/2000/svg">
<g filter="url(#filter0_d_3_61)">
<path d="M49.831 60.1438H29.3623V48.6125H20.0185L16.4873 60.1438H7.98725L22.7685 14.4563H49.831V21.8H37.8623V32.675H48.956V40.05H37.8623V52.7063H49.831V60.1438ZM28.1435 21.8L27.706 23.3313L22.3935 41.0813H29.3623V21.8H28.1435ZM54.021 14.4563H65.6772C70.4272 14.4563 73.8856 15.3833 76.0522 17.2375C78.2189 19.0708 79.3022 21.9979 79.3022 26.0188C79.3022 28.6646 78.7293 30.8833 77.5835 32.675C76.4377 34.4458 74.8752 35.5188 72.896 35.8938V36.2063C75.4793 36.8521 77.3439 38.0604 78.4897 39.8313C79.6356 41.6021 80.2085 43.9563 80.2085 46.8938C80.2085 51.0396 79.0939 54.2896 76.8647 56.6438C74.6564 58.9771 71.6252 60.1438 67.771 60.1438H54.021V14.4563ZM62.021 32.8313H65.9272C67.7189 32.8313 68.9793 32.3521 69.7085 31.3938C70.4377 30.4354 70.8022 29.0083 70.8022 27.1125C70.8022 25.2167 70.3856 23.8625 69.5522 23.05C68.7189 22.2167 67.4064 21.8 65.6147 21.8H62.021V32.8313ZM62.021 39.925V52.7063H66.3022C68.0731 52.7063 69.3856 52.1646 70.2397 51.0813C71.1147 49.9979 71.5522 48.3208 71.5522 46.05C71.5522 41.9667 69.7606 39.925 66.1772 39.925H62.021ZM107.586 25.2688C107.586 28.1021 106.742 30.4563 105.055 32.3313C103.388 34.1854 100.982 35.4354 97.836 36.0813V36.3313C101.253 36.7479 103.898 37.8938 105.773 39.7688C107.669 41.6229 108.617 44.1021 108.617 47.2063C108.617 51.4146 107.263 54.7271 104.555 57.1438C101.867 59.5604 98.2006 60.7688 93.5547 60.7688C88.6381 60.7688 84.8047 60.05 82.0547 58.6125V51.175C85.1381 52.8833 88.4193 53.7375 91.8985 53.7375C97.3568 53.7375 100.086 51.3521 100.086 46.5813C100.086 44.4146 99.2943 42.7688 97.711 41.6438C96.1485 40.4979 93.8256 39.925 90.7422 39.925H87.6797V32.9563H90.4297C93.4506 32.9563 95.6797 32.4354 97.1172 31.3938C98.5547 30.3313 99.2735 28.6958 99.2735 26.4875C99.2735 24.7167 98.7943 23.3625 97.836 22.425C96.8777 21.4667 95.4922 20.9875 93.6797 20.9875C90.9089 20.9875 88.2839 22.1125 85.8047 24.3625L81.7735 18.675C83.836 16.9042 85.9297 15.6542 88.0547 14.925C90.1797 14.175 92.5443 13.8 95.1485 13.8C98.9193 13.8 101.93 14.8521 104.18 16.9563C106.451 19.0396 107.586 21.8104 107.586 25.2688ZM133.964 60.1438L131.339 48.6125H119.432L116.807 60.1438H108.307L119.62 14.2688H131.151L142.495 60.1438H133.964ZM129.745 41.0813L127.307 30.4563C127.161 29.8104 126.828 28.1958 126.307 25.6125C125.807 23.0083 125.505 21.2688 125.401 20.3938C125.13 22.1854 124.786 24.1646 124.37 26.3313C123.953 28.4771 122.87 33.3938 121.12 41.0813H129.745ZM164.372 14.4563V21.8H152.404V60.1438H143.966V14.4563H164.372Z" fill="#FB0000"/>
<path d="M49.831 60.1438V60.6438H50.331V60.1438H49.831ZM29.3623 60.1438H28.8623V60.6438H29.3623V60.1438ZM29.3623 48.6125H29.8623V48.1125H29.3623V48.6125ZM20.0185 48.6125V48.1125H19.6487L19.5404 48.4661L20.0185 48.6125ZM16.4873 60.1438V60.6438H16.8571L16.9653 60.2902L16.4873 60.1438ZM7.98725 60.1438L7.51153 59.9898L7.29997 60.6438H7.98725V60.1438ZM22.7685 14.4563V13.9563H22.4047L22.2928 14.3023L22.7685 14.4563ZM49.831 14.4563H50.331V13.9563H49.831V14.4563ZM49.831 21.8V22.3H50.331V21.8H49.831ZM37.8623 21.8V21.3H37.3623V21.8H37.8623ZM37.8623 32.675H37.3623V33.175H37.8623V32.675ZM48.956 32.675H49.456V32.175H48.956V32.675ZM48.956 40.05V40.55H49.456V40.05H48.956ZM37.8623 40.05V39.55H37.3623V40.05H37.8623ZM37.8623 52.7063H37.3623V53.2063H37.8623V52.7063ZM49.831 52.7063H50.331V52.2063H49.831V52.7063ZM28.1435 21.8V21.3H27.7664L27.6627 21.6626L28.1435 21.8ZM27.706 23.3313L28.185 23.4746L28.1868 23.4686L27.706 23.3313ZM22.3935 41.0813L21.9145 40.9379L21.7219 41.5813H22.3935V41.0813ZM29.3623 41.0813V41.5813H29.8623V41.0813H29.3623ZM29.3623 21.8H29.8623V21.3H29.3623V21.8ZM49.831 60.1438V59.6438H29.3623V60.1438V60.6438H49.831V60.1438ZM29.3623 60.1438H29.8623V48.6125H29.3623H28.8623V60.1438H29.3623ZM29.3623 48.6125V48.1125H20.0185V48.6125V49.1125H29.3623V48.6125ZM20.0185 48.6125L19.5404 48.4661L16.0092 59.9973L16.4873 60.1438L16.9653 60.2902L20.4966 48.7589L20.0185 48.6125ZM16.4873 60.1438V59.6438H7.98725V60.1438V60.6438H16.4873V60.1438ZM7.98725 60.1438L8.46297 60.2977L23.2442 14.6102L22.7685 14.4563L22.2928 14.3023L7.51153 59.9898L7.98725 60.1438ZM22.7685 14.4563V14.9563H49.831V14.4563V13.9563H22.7685V14.4563ZM49.831 14.4563H49.331V21.8H49.831H50.331V14.4563H49.831ZM49.831 21.8V21.3H37.8623V21.8V22.3H49.831V21.8ZM37.8623 21.8H37.3623V32.675H37.8623H38.3623V21.8H37.8623ZM37.8623 32.675V33.175H48.956V32.675V32.175H37.8623V32.675ZM48.956 32.675H48.456V40.05H48.956H49.456V32.675H48.956ZM48.956 40.05V39.55H37.8623V40.05V40.55H48.956V40.05ZM37.8623 40.05H37.3623V52.7063H37.8623H38.3623V40.05H37.8623ZM37.8623 52.7063V53.2063H49.831V52.7063V52.2063H37.8623V52.7063ZM49.831 52.7063H49.331V60.1438H49.831H50.331V52.7063H49.831ZM28.1435 21.8L27.6627 21.6626L27.2252 23.1939L27.706 23.3313L28.1868 23.4686L28.6243 21.9374L28.1435 21.8ZM27.706 23.3313L27.227 23.1879L21.9145 40.9379L22.3935 41.0813L22.8725 41.2246L28.185 23.4746L27.706 23.3313ZM22.3935 41.0813V41.5813H29.3623V41.0813V40.5813H22.3935V41.0813ZM29.3623 41.0813H29.8623V21.8H29.3623H28.8623V41.0813H29.3623ZM29.3623 21.8V21.3H28.1435V21.8V22.3H29.3623V21.8ZM54.021 14.4563V13.9563H53.521V14.4563H54.021ZM76.0522 17.2375L75.7271 17.6174L75.7293 17.6192L76.0522 17.2375ZM77.5835 32.675L78.0033 32.9466L78.0047 32.9444L77.5835 32.675ZM72.896 35.8938L72.8029 35.4025L72.396 35.4796V35.8938H72.896ZM72.896 36.2063H72.396V36.5966L72.7747 36.6913L72.896 36.2063ZM76.8647 56.6438L76.5017 56.3L76.5016 56.3001L76.8647 56.6438ZM54.021 60.1438H53.521V60.6438H54.021V60.1438ZM62.021 32.8313H61.521V33.3313H62.021V32.8313ZM69.5522 23.05L69.1987 23.4036L69.2032 23.408L69.5522 23.05ZM62.021 21.8V21.3H61.521V21.8H62.021ZM62.021 39.925V39.425H61.521V39.925H62.021ZM62.021 52.7063H61.521V53.2063H62.021V52.7063ZM70.2397 51.0813L69.8507 50.7671L69.8471 50.7717L70.2397 51.0813ZM54.021 14.4563V14.9563H65.6772V14.4563V13.9563H54.021V14.4563ZM65.6772 14.4563V14.9563C70.3815 14.9563 73.6945 15.8779 75.7272 17.6174L76.0522 17.2375L76.3773 16.8576C74.0767 14.8888 70.473 13.9563 65.6772 13.9563V14.4563ZM76.0522 17.2375L75.7293 17.6192C77.7428 19.3229 78.8022 22.0814 78.8022 26.0188H79.3022H79.8022C79.8022 21.9145 78.695 18.8187 76.3752 16.8558L76.0522 17.2375ZM79.3022 26.0188H78.8022C78.8022 28.5924 78.2454 30.712 77.1623 32.4056L77.5835 32.675L78.0047 32.9444C79.2132 31.0547 79.8022 28.7368 79.8022 26.0188H79.3022ZM77.5835 32.675L77.1637 32.4034C76.0882 34.0655 74.6408 35.0543 72.8029 35.4025L72.896 35.8938L72.9891 36.385C75.1095 35.9832 76.7871 34.8262 78.0033 32.9466L77.5835 32.675ZM72.896 35.8938H72.396V36.2063H72.896H73.396V35.8938H72.896ZM72.896 36.2063L72.7747 36.6913C75.2687 37.3148 77.0098 38.4644 78.07 40.1029L78.4897 39.8313L78.9095 39.5596C77.6781 37.6565 75.6899 36.3893 73.0173 35.7212L72.896 36.2063ZM78.4897 39.8313L78.07 40.1029C79.1467 41.7669 79.7085 44.0162 79.7085 46.8938H80.2085H80.7085C80.7085 43.8963 80.1245 41.4373 78.9095 39.5596L78.4897 39.8313ZM80.2085 46.8938H79.7085C79.7085 50.9488 78.6204 54.0625 76.5017 56.3L76.8647 56.6438L77.2278 56.9875C79.5675 54.5167 80.7085 51.1304 80.7085 46.8938H80.2085ZM76.8647 56.6438L76.5016 56.3001C74.4063 58.514 71.5174 59.6438 67.771 59.6438V60.1438V60.6438C71.7329 60.6438 74.9065 59.4402 77.2279 56.9874L76.8647 56.6438ZM67.771 60.1438V59.6438H54.021V60.1438V60.6438H67.771V60.1438ZM54.021 60.1438H54.521V14.4563H54.021H53.521V60.1438H54.021ZM62.021 32.8313V33.3313H65.9272V32.8313V32.3313H62.021V32.8313ZM65.9272 32.8313V33.3313C67.796 33.3313 69.2434 32.8308 70.1064 31.6965L69.7085 31.3938L69.3106 31.091C68.7153 31.8734 67.6418 32.3313 65.9272 32.3313V32.8313ZM69.7085 31.3938L70.1064 31.6965C70.9302 30.6138 71.3022 29.059 71.3022 27.1125H70.8022H70.3022C70.3022 28.9576 69.9451 30.257 69.3106 31.091L69.7085 31.3938ZM70.8022 27.1125H71.3022C71.3022 25.1631 70.8769 23.6433 69.9013 22.692L69.5522 23.05L69.2032 23.408C69.8942 24.0818 70.3022 25.2702 70.3022 27.1125H70.8022ZM69.5522 23.05L69.9058 22.6964C68.9397 21.7304 67.4712 21.3 65.6147 21.3V21.8V22.3C67.3416 22.3 68.4981 22.703 69.1987 23.4036L69.5522 23.05ZM65.6147 21.8V21.3H62.021V21.8V22.3H65.6147V21.8ZM62.021 21.8H61.521V32.8313H62.021H62.521V21.8H62.021ZM62.021 39.925H61.521V52.7063H62.021H62.521V39.925H62.021ZM62.021 52.7063V53.2063H66.3022V52.7063V52.2063H62.021V52.7063ZM66.3022 52.7063V53.2063C68.1789 53.2063 69.6575 52.6272 70.6324 51.3908L70.2397 51.0813L69.8471 50.7717C69.1136 51.7019 67.9673 52.2063 66.3022 52.2063V52.7063ZM70.2397 51.0813L70.6287 51.3954C71.6086 50.1823 72.0522 48.3683 72.0522 46.05H71.5522H71.0522C71.0522 48.2733 70.6209 49.8136 69.8508 50.7671L70.2397 51.0813ZM71.5522 46.05H72.0522C72.0522 43.9461 71.5921 42.2749 70.5843 41.1265C69.5656 39.9656 68.0642 39.425 66.1772 39.425V39.925V40.425C67.8736 40.425 69.0598 40.9053 69.8327 41.786C70.6166 42.6793 71.0522 44.0705 71.0522 46.05H71.5522ZM66.1772 39.925V39.425H62.021V39.925V40.425H66.1772V39.925ZM105.055 32.3313L104.683 31.9968L104.683 31.997L105.055 32.3313ZM97.836 36.0813L97.7354 35.5915L97.336 35.6735V36.0813H97.836ZM97.836 36.3313H97.336V36.774L97.7755 36.8276L97.836 36.3313ZM105.773 39.7688L105.42 40.1223L105.424 40.1262L105.773 39.7688ZM104.555 57.1438L104.222 56.7707L104.22 56.772L104.555 57.1438ZM82.0547 58.6125H81.5547V58.9153L81.8231 59.0556L82.0547 58.6125ZM82.0547 51.175L82.2971 50.7376L81.5547 50.3264V51.175H82.0547ZM97.711 41.6438L97.4153 42.047L97.4214 42.0513L97.711 41.6438ZM87.6797 39.925H87.1797V40.425H87.6797V39.925ZM87.6797 32.9563V32.4563H87.1797V32.9563H87.6797ZM97.1172 31.3938L97.4106 31.7986L97.4144 31.7958L97.1172 31.3938ZM97.836 22.425L97.4824 22.7786L97.4864 22.7824L97.836 22.425ZM85.8047 24.3625L85.3968 24.6516L85.723 25.1119L86.1408 24.7328L85.8047 24.3625ZM81.7735 18.675L81.4478 18.2956L81.1021 18.5924L81.3656 18.9641L81.7735 18.675ZM88.0547 14.925L88.217 15.398L88.2212 15.3965L88.0547 14.925ZM104.18 16.9563L103.838 17.3215L103.842 17.3247L104.18 16.9563ZM107.586 25.2688H107.086C107.086 27.9949 106.278 30.2251 104.683 31.9968L105.055 32.3313L105.426 32.6657C107.207 30.6875 108.086 28.2093 108.086 25.2688H107.586ZM105.055 32.3313L104.683 31.997C103.106 33.7514 100.807 34.9609 97.7354 35.5915L97.836 36.0813L97.9366 36.571C101.157 35.9099 103.67 34.6195 105.427 32.6655L105.055 32.3313ZM97.836 36.0813H97.336V36.3313H97.836H98.336V36.0813H97.836ZM97.836 36.3313L97.7755 36.8276C101.115 37.2348 103.645 38.3471 105.42 40.1223L105.773 39.7688L106.127 39.4152C104.152 37.4404 101.391 36.2611 97.8965 35.8349L97.836 36.3313ZM105.773 39.7688L105.424 40.1262C107.207 41.8703 108.117 44.2118 108.117 47.2063H108.617H109.117C109.117 43.9924 108.132 41.3756 106.123 39.4113L105.773 39.7688ZM108.617 47.2063H108.117C108.117 51.2971 106.807 54.4644 104.222 56.7707L104.555 57.1438L104.888 57.5168C107.72 54.9898 109.117 51.532 109.117 47.2063H108.617ZM104.555 57.1438L104.22 56.772C101.649 59.0847 98.1134 60.2688 93.5547 60.2688V60.7688V61.2688C98.2877 61.2688 102.086 60.0362 104.889 57.5155L104.555 57.1438ZM93.5547 60.7688V60.2688C88.6764 60.2688 84.935 59.5539 82.2864 58.1694L82.0547 58.6125L81.8231 59.0556C84.6745 60.5461 88.5998 61.2688 93.5547 61.2688V60.7688ZM82.0547 58.6125H82.5547V51.175H82.0547H81.5547V58.6125H82.0547ZM82.0547 51.175L81.8124 51.6124C84.9689 53.3612 88.3334 54.2375 91.8985 54.2375V53.7375V53.2375C88.5053 53.2375 85.3073 52.4055 82.2971 50.7376L82.0547 51.175ZM91.8985 53.7375V54.2375C94.6894 54.2375 96.876 53.6291 98.3682 52.3249C99.8732 51.0095 100.586 49.0626 100.586 46.5813H100.086H99.586C99.586 48.8708 98.9342 50.502 97.7101 51.572C96.473 52.6532 94.5659 53.2375 91.8985 53.2375V53.7375ZM100.086 46.5813H100.586C100.586 44.2744 99.7327 42.4669 98.0006 41.2362L97.711 41.6438L97.4214 42.0513C98.856 43.0707 99.586 44.5548 99.586 46.5813H100.086ZM97.711 41.6438L98.0067 41.2406C96.3211 40.0044 93.8737 39.425 90.7422 39.425V39.925V40.425C93.7774 40.425 95.9759 40.9914 97.4153 42.047L97.711 41.6438ZM90.7422 39.925V39.425H87.6797V39.925V40.425H90.7422V39.925ZM87.6797 39.925H88.1797V32.9563H87.6797H87.1797V39.925H87.6797ZM87.6797 32.9563V33.4563H90.4297V32.9563V32.4563H87.6797V32.9563ZM90.4297 32.9563V33.4563C93.4895 33.4563 95.8464 32.9322 97.4106 31.7986L97.1172 31.3938L96.8239 30.9889C95.5131 31.9387 93.4116 32.4563 90.4297 32.4563V32.9563ZM97.1172 31.3938L97.4144 31.7958C99.0097 30.6168 99.7735 28.8128 99.7735 26.4875H99.2735H98.7735C98.7735 28.5789 98.0998 30.0457 96.8201 30.9917L97.1172 31.3938ZM99.2735 26.4875H99.7735C99.7735 24.6271 99.2681 23.1265 98.1856 22.0676L97.836 22.425L97.4864 22.7824C98.3206 23.5985 98.7735 24.8063 98.7735 26.4875H99.2735ZM97.836 22.425L98.1896 22.0714C97.1092 20.9911 95.5787 20.4875 93.6797 20.4875V20.9875V21.4875C95.4058 21.4875 96.6461 21.9422 97.4824 22.7786L97.836 22.425ZM93.6797 20.9875V20.4875C90.7599 20.4875 88.0197 21.6771 85.4687 23.9923L85.8047 24.3625L86.1408 24.7328C88.5481 22.5479 91.0579 21.4875 93.6797 21.4875V20.9875ZM85.8047 24.3625L86.2127 24.0734L82.1814 18.3859L81.7735 18.675L81.3656 18.9641L85.3968 24.6516L85.8047 24.3625ZM81.7735 18.675L82.0992 19.0544C84.1235 17.3164 86.1631 16.1027 88.217 15.3979L88.0547 14.925L87.8925 14.4521C85.6964 15.2056 83.5485 16.492 81.4478 18.2956L81.7735 18.675ZM88.0547 14.925L88.2212 15.3965C90.2851 14.668 92.5924 14.3 95.1485 14.3V13.8V13.3C92.4963 13.3 90.0744 13.682 87.8883 14.4535L88.0547 14.925ZM95.1485 13.8V14.3C98.8224 14.3 101.701 15.3224 103.838 17.3214L104.18 16.9563L104.521 16.5911C102.159 14.3818 99.0162 13.3 95.1485 13.3V13.8ZM104.18 16.9563L103.842 17.3247C105.996 19.3012 107.086 21.9315 107.086 25.2688H107.586H108.086C108.086 21.6893 106.905 18.778 104.518 16.5878L104.18 16.9563ZM133.964 60.1438L133.476 60.2547L133.565 60.6438H133.964V60.1438ZM131.339 48.6125L131.826 48.5015L131.737 48.1125H131.339V48.6125ZM119.432 48.6125V48.1125H119.033L118.945 48.5015L119.432 48.6125ZM116.807 60.1438V60.6438H117.206L117.295 60.2547L116.807 60.1438ZM108.307 60.1438L107.822 60.024L107.669 60.6438H108.307V60.1438ZM119.62 14.2688V13.7688H119.228L119.134 14.149L119.62 14.2688ZM131.151 14.2688L131.636 14.1487L131.542 13.7688H131.151V14.2688ZM142.495 60.1438V60.6438H143.133L142.98 60.0237L142.495 60.1438ZM129.745 41.0813V41.5813H130.372L130.232 40.9695L129.745 41.0813ZM127.307 30.4563L126.82 30.5664L126.82 30.5681L127.307 30.4563ZM126.307 25.6125L125.816 25.7068L125.817 25.7113L126.307 25.6125ZM125.401 20.3938L125.897 20.3346L124.907 20.319L125.401 20.3938ZM124.37 26.3313L124.861 26.4266L124.861 26.4257L124.37 26.3313ZM121.12 41.0813L120.632 40.9703L120.493 41.5813H121.12V41.0813ZM133.964 60.1438L134.451 60.0328L131.826 48.5015L131.339 48.6125L130.851 48.7235L133.476 60.2547L133.964 60.1438ZM131.339 48.6125V48.1125H119.432V48.6125V49.1125H131.339V48.6125ZM119.432 48.6125L118.945 48.5015L116.32 60.0328L116.807 60.1438L117.295 60.2547L119.92 48.7235L119.432 48.6125ZM116.807 60.1438V59.6438H108.307V60.1438V60.6438H116.807V60.1438ZM108.307 60.1438L108.793 60.2635L120.105 14.3885L119.62 14.2688L119.134 14.149L107.822 60.024L108.307 60.1438ZM119.62 14.2688V14.7688H131.151V14.2688V13.7688H119.62V14.2688ZM131.151 14.2688L130.666 14.3888L142.009 60.2638L142.495 60.1438L142.98 60.0237L131.636 14.1487L131.151 14.2688ZM142.495 60.1438V59.6438H133.964V60.1438V60.6438H142.495V60.1438ZM129.745 41.0813L130.232 40.9695L127.795 30.3445L127.307 30.4563L126.82 30.5681L129.257 41.1931L129.745 41.0813ZM127.307 30.4563L127.795 30.3461C127.651 29.7072 127.319 28.0991 126.797 25.5137L126.307 25.6125L125.817 25.7113C126.338 28.2926 126.672 29.9136 126.82 30.5664L127.307 30.4563ZM126.307 25.6125L126.798 25.5182C126.298 22.9111 125.999 21.189 125.897 20.3346L125.401 20.3938L124.905 20.4529C125.011 21.3485 125.317 23.1056 125.816 25.7068L126.307 25.6125ZM125.401 20.3938L124.907 20.319C124.637 22.1029 124.294 24.0754 123.879 26.2368L124.37 26.3313L124.861 26.4257C125.278 24.2538 125.623 22.268 125.895 20.4685L125.401 20.3938ZM124.37 26.3313L123.879 26.2359C123.464 28.3723 122.383 33.2804 120.632 40.9703L121.12 41.0813L121.607 41.1922C123.357 33.5071 124.442 28.5819 124.861 26.4266L124.37 26.3313ZM121.12 41.0813V41.5813H129.745V41.0813V40.5813H121.12V41.0813ZM164.372 14.4563H164.872V13.9563H164.372V14.4563ZM164.372 21.8V22.3H164.872V21.8H164.372ZM152.404 21.8V21.3H151.904V21.8H152.404ZM152.404 60.1438V60.6438H152.904V60.1438H152.404ZM143.966 60.1438H143.466V60.6438H143.966V60.1438ZM143.966 14.4563V13.9563H143.466V14.4563H143.966ZM164.372 14.4563H163.872V21.8H164.372H164.872V14.4563H164.372ZM164.372 21.8V21.3H152.404V21.8V22.3H164.372V21.8ZM152.404 21.8H151.904V60.1438H152.404H152.904V21.8H152.404ZM152.404 60.1438V59.6438H143.966V60.1438V60.6438H152.404V60.1438ZM143.966 60.1438H144.466V14.4563H143.966H143.466V60.1438H143.966ZM143.966 14.4563V14.9563H164.372V14.4563V13.9563H143.966V14.4563Z" fill="#FFCB3D"/>
</g>
<defs>
<filter id="filter0_d_3_61" x="-1.23978e-05" y="2.86102e-06" width="172.172" height="62.5688" filterUnits="userSpaceOnUse" color-interpolation-filters="sRGB">
<feFlood flood-opacity="0" result="BackgroundImageFix"/>
<feColorMatrix in="SourceAlpha" type="matrix" values="0 0 0 0 0 0 0 0 0 0 0 0 0 0 0 0 0 0 127 0" result="hardAlpha"/>
<feOffset dy="-6"/>
<feGaussianBlur stdDeviation="3.65"/>
<feComposite in2="hardAlpha" operator="out"/>
<feColorMatrix type="matrix" values="0 0 0 0 0.134615 0 0 0 0 0.134615 0 0 0 0 0.134615 0 0 0 0.25 0"/>
<feBlend mode="normal" in2="BackgroundImageFix" result="effect1_dropShadow_3_61"/>
<feBlend mode="normal" in="SourceGraphic" in2="effect1_dropShadow_3_61" result="shape"/>
</filter>
</defs>
</svg>
