<svg width="412" height="92" viewBox="0 0 412 92" fill="none" xmlns="http://www.w3.org/2000/svg">
<path d="M8.192 91.392C5.46133 91.392 3.41333 90.752 2.048 89.472C0.682662 88.1067 -4.29153e-06 86.4853 -4.29153e-06 84.608C-4.29153e-06 82.7307 0.682662 80.9813 2.048 79.36L60.416 4.99199C61.8667 3.19999 63.4027 1.91999 65.024 1.15199C66.7307 0.383985 68.6933 -1.52588e-05 70.912 -1.52588e-05H126.848C129.493 -1.52588e-05 131.541 0.554652 132.992 1.66399C134.443 2.68799 135.168 4.22399 135.168 6.27199C135.168 9.17332 134.315 11.4347 132.608 13.056C130.987 14.6773 128.725 15.488 125.824 15.488H77.312L83.2 10.88L85.248 42.112L79.104 36.608H118.272C120.917 36.608 122.923 37.1627 124.288 38.272C125.739 39.3813 126.464 40.9173 126.464 42.88C126.464 45.7813 125.611 48.0853 123.904 49.792C122.283 51.4133 120.064 52.224 117.248 52.224H80.128L85.376 46.72L87.424 80.128L81.28 74.752H115.072C117.803 74.752 119.851 75.3067 121.216 76.416C122.667 77.44 123.392 78.976 123.392 81.024C123.392 83.84 122.581 86.1013 120.96 87.808C119.339 89.4293 117.035 90.24 114.048 90.24H79.232C73.6 90.24 70.6133 87.4667 70.272 81.92L69.376 64.768L74.752 70.656H25.6L33.664 65.408L17.92 86.4C16.64 88.1067 15.232 89.3867 13.696 90.24C12.16 91.008 10.3253 91.392 8.192 91.392ZM66.56 21.76L37.76 59.904L37.376 55.168H73.728L69.12 60.544L66.816 21.76H66.56ZM146.176 90.24C142.933 90.24 140.544 89.3867 139.008 87.68C137.557 85.888 137.088 83.3707 137.6 80.128L144.512 36.096C145.024 33.1947 146.091 31.0187 147.712 29.568C149.419 28.1173 151.723 27.392 154.624 27.392H180.48C185.6 27.392 189.739 28.0747 192.896 29.44C196.139 30.8053 198.485 32.5973 199.936 34.816C201.472 37.0347 202.24 39.4667 202.24 42.112C202.24 46.72 200.704 50.5173 197.632 53.504C194.645 56.4907 190.592 58.24 185.472 58.752L185.856 56.832C190.635 57.2587 194.261 58.6667 196.736 61.056C199.296 63.4453 200.576 66.7733 200.576 71.04C200.576 76.928 198.272 81.6213 193.664 85.12C189.056 88.5333 182.187 90.24 173.056 90.24H146.176ZM155.52 78.72H172.288C175.957 78.72 178.645 77.9947 180.352 76.544C182.144 75.0933 183.04 73.0027 183.04 70.272C183.04 68.1387 182.315 66.56 180.864 65.536C179.499 64.4267 177.451 63.872 174.72 63.872H157.952L155.52 78.72ZM159.744 52.48H175.616C178.432 52.48 180.651 51.7547 182.272 50.304C183.979 48.8533 184.832 46.8907 184.832 44.416C184.832 42.5387 184.192 41.1733 182.912 40.32C181.632 39.3813 179.84 38.912 177.536 38.912H161.92L159.744 52.48ZM234.887 91.648C230.791 91.648 226.908 91.264 223.239 90.496C219.655 89.728 216.37 88.6187 213.383 87.168C211.676 86.4 210.439 85.3333 209.671 83.968C208.903 82.6027 208.604 81.2373 208.775 79.872C208.946 78.4213 209.458 77.184 210.311 76.16C211.164 75.0507 212.274 74.3253 213.639 73.984C215.09 73.5573 216.754 73.7707 218.631 74.624C221.191 75.8187 224.05 76.7147 227.207 77.312C230.45 77.824 233.479 78.08 236.295 78.08C240.988 78.08 244.658 77.568 247.303 76.544C249.948 75.52 251.271 73.6 251.271 70.784C251.271 68.992 250.631 67.6267 249.351 66.688C248.071 65.7493 246.023 65.28 243.207 65.28H232.455C230.236 65.28 228.487 64.768 227.207 63.744C226.012 62.72 225.415 61.3547 225.415 59.648C225.415 57.2587 226.098 55.3813 227.463 54.016C228.914 52.5653 230.876 51.84 233.351 51.84H243.719C246.62 51.84 248.839 51.2853 250.375 50.176C251.996 49.0667 252.807 47.4453 252.807 45.312C252.807 43.52 251.868 42.1547 249.991 41.216C248.114 40.192 244.956 39.68 240.519 39.68C237.874 39.68 235.186 39.936 232.455 40.448C229.724 40.8747 227.036 41.6427 224.391 42.752C222.002 43.6907 219.954 43.776 218.247 43.008C216.626 42.1547 215.516 40.9173 214.919 39.296C214.322 37.6747 214.364 36.0107 215.047 34.304C215.815 32.5973 217.436 31.3173 219.911 30.464C223.495 29.0133 227.42 27.9467 231.687 27.264C236.039 26.496 240.476 26.112 244.999 26.112C252.935 26.112 259.122 27.52 263.559 30.336C268.082 33.152 270.343 36.9067 270.343 41.6C270.343 46.3787 268.722 50.304 265.479 53.376C262.322 56.448 258.226 58.24 253.191 58.752L254.087 56.832C258.78 57.1733 262.364 58.624 264.839 61.184C267.399 63.744 268.679 67.072 268.679 71.168C268.679 77.9093 265.607 83.0293 259.463 86.528C253.404 89.9413 245.212 91.648 234.887 91.648ZM300.321 91.648C296.396 91.648 292.812 90.752 289.569 88.96C286.412 87.0827 283.852 84.6507 281.889 81.664C280.012 78.6773 279.073 75.4347 279.073 71.936C279.073 67.4987 280.31 63.872 282.785 61.056C285.26 58.24 289.1 56.192 294.305 54.912C299.51 53.5467 306.166 52.864 314.273 52.864H324.385L322.849 62.848H314.657C310.476 62.848 307.148 63.104 304.673 63.616C302.198 64.0427 300.406 64.8533 299.297 66.048C298.188 67.1573 297.633 68.6933 297.633 70.656C297.633 73.216 298.486 75.2213 300.193 76.672C301.985 78.0373 304.204 78.72 306.849 78.72C309.324 78.72 311.5 78.208 313.377 77.184C315.34 76.16 316.961 74.7093 318.241 72.832C319.606 70.9547 320.46 68.736 320.801 66.176L323.233 51.2C323.83 47.7013 323.19 45.0133 321.313 43.136C319.521 41.2587 316.449 40.32 312.097 40.32C309.452 40.32 306.849 40.576 304.289 41.088C301.814 41.6 299.212 42.4533 296.481 43.648C294.518 44.3307 292.812 44.4587 291.361 44.032C289.91 43.6053 288.716 42.8373 287.777 41.728C286.924 40.6187 286.497 39.3387 286.497 37.888C286.582 36.352 287.137 34.9013 288.161 33.536C289.185 32.1707 290.849 31.0187 293.153 30.08C296.822 28.6293 300.492 27.6053 304.161 27.008C307.83 26.4107 311.372 26.112 314.785 26.112C321.953 26.112 327.585 27.4347 331.681 30.08C335.777 32.7253 338.55 36.3093 340.001 40.832C341.452 45.2693 341.708 50.2613 340.769 55.808L336.673 81.792C336.246 84.9493 335.137 87.3387 333.345 88.96C331.553 90.5813 329.206 91.392 326.305 91.392C323.489 91.392 321.398 90.496 320.033 88.704C318.668 86.912 318.284 84.2667 318.881 80.768L319.905 73.984L320.545 77.44C319.265 80.6827 317.558 83.3707 315.425 85.504C313.377 87.6373 311.073 89.216 308.513 90.24C305.953 91.1787 303.222 91.648 300.321 91.648ZM361.536 91.392C358.464 91.392 356.245 90.4107 354.88 88.448C353.515 86.4 353.088 83.6267 353.6 80.128L360.512 36.096C361.024 33.1947 362.091 31.0187 363.712 29.568C365.419 28.1173 367.723 27.392 370.624 27.392H403.264C405.995 27.392 408.043 27.9467 409.408 29.056C410.773 30.08 411.456 31.5733 411.456 33.536C411.456 36.2667 410.645 38.4427 409.024 40.064C407.488 41.6853 405.269 42.496 402.368 42.496H378.944L372.672 81.536C371.563 88.1067 367.851 91.392 361.536 91.392Z" fill="#EBB30D"/>
</svg>
