<svg width="54" height="56" viewBox="0 0 54 56" fill="none" xmlns="http://www.w3.org/2000/svg">
<mask id="path-1-outside-1_3_61" maskUnits="userSpaceOnUse" x="-0.845947" y="-0.3125" width="55" height="56" fill="black">
<rect fill="white" x="-0.845947" y="-0.3125" width="55" height="56"/>
<path d="M48.7166 50.6875H28.2478V39.1562H18.9041L15.3728 50.6875H6.8728L21.6541 5H48.7166V12.3438H36.7478V23.2188H47.8416V30.5938H36.7478V43.25H48.7166V50.6875ZM27.0291 12.3438L26.5916 13.875L21.2791 31.625H28.2478V12.3438H27.0291Z"/>
</mask>
<path d="M48.7166 50.6875H28.2478V39.1562H18.9041L15.3728 50.6875H6.8728L21.6541 5H48.7166V12.3438H36.7478V23.2188H47.8416V30.5938H36.7478V43.25H48.7166V50.6875ZM27.0291 12.3438L26.5916 13.875L21.2791 31.625H28.2478V12.3438H27.0291Z" fill="#A39409"/>
<path d="M48.7166 50.6875V55.6875H53.7166V50.6875H48.7166ZM28.2478 50.6875H23.2478V55.6875H28.2478V50.6875ZM28.2478 39.1562H33.2478V34.1562H28.2478V39.1562ZM18.9041 39.1562V34.1562H15.206L14.1232 37.6922L18.9041 39.1562ZM15.3728 50.6875V55.6875H19.0708L20.1537 52.1516L15.3728 50.6875ZM6.8728 50.6875L2.11558 49.1484L-1.14966e-05 55.6875H6.8728V50.6875ZM21.6541 5V0H18.0165L16.8968 3.4609L21.6541 5ZM48.7166 5H53.7166V0H48.7166V5ZM48.7166 12.3438V17.3438H53.7166V12.3438H48.7166ZM36.7478 12.3438V7.34375H31.7478V12.3438H36.7478ZM36.7478 23.2188H31.7478V28.2188H36.7478V23.2188ZM47.8416 23.2188H52.8416V18.2188H47.8416V23.2188ZM47.8416 30.5938V35.5938H52.8416V30.5938H47.8416ZM36.7478 30.5938V25.5938H31.7478V30.5938H36.7478ZM36.7478 43.25H31.7478V48.25H36.7478V43.25ZM48.7166 43.25H53.7166V38.25H48.7166V43.25ZM27.0291 12.3438V7.34375H23.2575L22.2214 10.9701L27.0291 12.3438ZM26.5916 13.875L31.3816 15.3086L31.3906 15.2787L31.3992 15.2486L26.5916 13.875ZM21.2791 31.625L16.489 30.1914L14.5634 36.625H21.2791V31.625ZM28.2478 31.625V36.625H33.2478V31.625H28.2478ZM28.2478 12.3438H33.2478V7.34375H28.2478V12.3438ZM48.7166 50.6875V45.6875H28.2478V50.6875V55.6875H48.7166V50.6875ZM28.2478 50.6875H33.2478V39.1562H28.2478H23.2478V50.6875H28.2478ZM28.2478 39.1562V34.1562H18.9041V39.1562V44.1562H28.2478V39.1562ZM18.9041 39.1562L14.1232 37.6922L10.592 49.2234L15.3728 50.6875L20.1537 52.1516L23.6849 40.6203L18.9041 39.1562ZM15.3728 50.6875V45.6875H6.8728V50.6875V55.6875H15.3728V50.6875ZM6.8728 50.6875L11.63 52.2266L26.4113 6.5391L21.6541 5L16.8968 3.4609L2.11558 49.1484L6.8728 50.6875ZM21.6541 5V10H48.7166V5V0H21.6541V5ZM48.7166 5H43.7166V12.3438H48.7166H53.7166V5H48.7166ZM48.7166 12.3438V7.34375H36.7478V12.3438V17.3438H48.7166V12.3438ZM36.7478 12.3438H31.7478V23.2188H36.7478H41.7478V12.3438H36.7478ZM36.7478 23.2188V28.2188H47.8416V23.2188V18.2188H36.7478V23.2188ZM47.8416 23.2188H42.8416V30.5938H47.8416H52.8416V23.2188H47.8416ZM47.8416 30.5938V25.5938H36.7478V30.5938V35.5938H47.8416V30.5938ZM36.7478 30.5938H31.7478V43.25H36.7478H41.7478V30.5938H36.7478ZM36.7478 43.25V48.25H48.7166V43.25V38.25H36.7478V43.25ZM48.7166 43.25H43.7166V50.6875H48.7166H53.7166V43.25H48.7166ZM27.0291 12.3438L22.2214 10.9701L21.7839 12.5014L26.5916 13.875L31.3992 15.2486L31.8367 13.7174L27.0291 12.3438ZM26.5916 13.875L21.8015 12.4414L16.489 30.1914L21.2791 31.625L26.0691 33.0586L31.3816 15.3086L26.5916 13.875ZM21.2791 31.625V36.625H28.2478V31.625V26.625H21.2791V31.625ZM28.2478 31.625H33.2478V12.3438H28.2478H23.2478V31.625H28.2478ZM28.2478 12.3438V7.34375H27.0291V12.3438V17.3438H28.2478V12.3438Z" fill="#FFD768" mask="url(#path-1-outside-1_3_61)"/>
</svg>
